<?xml version="1.0" encoding="utf-8"?>
<!-- Generator: Adobe Illustrator 23.0.0, SVG Export Plug-In . SVG Version: 6.00 Build 0)  -->
<svg version="1.1" id="Capa_1" xmlns="http://www.w3.org/2000/svg" xmlns:xlink="http://www.w3.org/1999/xlink" x="0px" y="0px"
	 viewBox="0 0 568 568" style="enable-background:new 0 0 568 568;" xml:space="preserve">
<style type="text/css">
	.st0{fill:#FFFFFF;}
</style>
<path class="st0" d="M500,568L500,568l-305.5,0v-0.1c8-0.1,14.2-4.6,14.4-12.2c0.7-19.7,0.2-39.5,0.2-58.6
	c-14.3,0.7-27.9,2.5-41.4,1.7c-29.8-1.7-52.6-14.4-64.5-43.5c-7-17.3-17.6-32-34.1-41.9c-3.1-1.8-5.8-4.5-8.1-7.3
	c-3.1-3.6-2.5-7.3,2.4-8.3c4.9-1,10.3-1.7,15.1-0.8c19,3.6,32.1,15.5,42.2,31.3c19.9,31.4,50.5,41,85,26.5c1.9-0.8,4.4-2.8,4.7-4.6
	c2.8-13.9,8-26.5,18.4-37.7c-11.6-2.2-22.4-3.7-33-6.2c-30.4-7-57.7-19.7-77.7-44.9c-16.3-20.5-23.8-44.5-27.2-70.1
	c-5.4-40-0.6-77.5,26.9-109.5c1.4-1.6,2.1-4.9,1.5-6.9c-6.9-22.5-5.8-44.8,1-67c3.6-11.7,4.6-12.3,16.5-10.6
	c0.7,0.1,1.4,0.3,2.2,0.4c23.9,4,44.5,15.5,64.7,28c2.7,1.7,6.9,2.7,9.9,2c48.4-11.8,96.7-11.7,145.1,0c2.8,0.7,6.6-0.3,9.3-1.7
	c11-5.8,21.6-12.5,32.7-17.9c13-6.3,26.7-11.1,41.4-10.8c2.6,0,6.6,2.5,7.4,4.8c8.9,23.5,10.7,47.4,3.7,71.8
	c-0.8,2.6,0.4,6.3,1.8,8.9c7,12.8,16.7,24.6,21.1,38.1c13.4,41.3,8.5,82.2-9.7,121.1c-16.8,35.6-47.8,53.6-84.6,62.9
	c-12.4,3.1-25.2,5-38.5,7.7c17.6,18.3,20.3,40.7,20,64.2c-0.3,24.2-0.2,48.4-0.3,72.6c0,11.7,5.1,18.2,14,18.6
	C376.9,568,445.5,568,500,568z"/>
<g>
	<g>
		<path d="M568,0v568h-25c-11.6,0-26.7,0-43,0c-54.5,0-123.1,0-123.1,0c-8.9-0.4-14-6.8-14-18.6c0-24.2-0.1-48.4,0.3-72.6
			c0.3-23.5-2.4-45.8-20-64.2c13.4-2.6,26.1-4.5,38.5-7.7c36.8-9.3,67.9-27.3,84.6-62.9c18.3-38.8,23.2-79.7,9.7-121.1
			c-4.4-13.6-14.1-25.3-21.1-38.1c-1.4-2.6-2.5-6.3-1.8-8.9c7.1-24.4,5.2-48.3-3.7-71.8c-0.9-2.3-4.8-4.7-7.4-4.8
			c-14.7-0.3-28.4,4.5-41.4,10.8c-11.2,5.5-21.7,12.2-32.7,17.9c-2.7,1.4-6.4,2.4-9.3,1.7c-48.4-11.7-96.7-11.8-145.1,0
			c-3,0.7-7.1-0.3-9.9-2c-20.3-12.4-40.8-24-64.7-28c-0.7-0.1-1.4-0.3-2.2-0.4c-11.9-1.6-12.9-1-16.5,10.6c-6.8,22.2-7.9,44.5-1,67
			c0.6,2-0.1,5.3-1.5,6.9c-27.5,32-32.3,69.5-26.9,109.5c3.4,25.6,10.9,49.6,27.2,70.1c20,25.2,47.3,37.8,77.7,44.9
			c10.6,2.5,21.3,4,33,6.2c-10.5,11.1-15.6,23.8-18.4,37.7c-0.4,1.8-2.8,3.8-4.7,4.6c-34.5,14.5-65.1,4.9-85-26.5
			c-10.1-15.9-23.2-27.8-42.2-31.3c-4.8-0.9-10.2-0.2-15.1,0.8c-4.9,1-5.4,4.7-2.4,8.3c2.4,2.8,5,5.5,8.1,7.3
			c16.5,9.9,27.1,24.6,34.1,41.9c11.9,29.1,34.7,41.8,64.5,43.5c13.5,0.8,27.1-1,41.4-1.7c0,19.1,0.5,38.8-0.2,58.6
			c-0.3,7.6-6.4,12.1-14.4,12.2v0.1H0V0H568z"/>
	</g>
</g>
</svg>
