<svg id="Camada_1" data-name="Camada 1" xmlns="http://www.w3.org/2000/svg" viewBox="0 0 512 513.61">
  <defs>
    <style>
      .cls-1 {
        fill: #fefefe;
      }

      .cls-2 {
        fill: #feca00;
      }

      .cls-3 {
        fill: #fe3d57;
      }

      .cls-4 {
        fill: #00d547;
      }
    </style>
  </defs>
  <title>monday-icon</title>
  <g>
    <path class="cls-1" d="M0,0H512V513.6H0ZM322.94,157.86c-13.11.37-24,5.82-31.42,17.27-6.8,10.49-13.13,21.29-19.75,31.9-14.95,24-29.85,48-45,71.85-6.53,10.3-10.7,20.88-7.47,33.32a38,38,0,0,0,14.78,22.07A35.19,35.19,0,0,0,261,340.73a38.49,38.49,0,0,0,14.16-4.94c6.79-4,11.24-10.07,15.31-16.61Q322,268.42,353.75,217.77c5.46-8.7,8.41-17.94,6.66-28.21C357.25,171,342.24,158.24,322.94,157.86ZM140.13,341.39c1.33-.18,3.57-.43,5.8-.79,11.44-1.87,19.75-8.47,25.94-17.89,5.86-8.93,11.36-18.1,17-27.16,16.13-25.78,32.2-51.61,48.42-77.33,5.42-8.6,8.41-17.59,7-27.92-1.46-10.76-7-18.93-15.34-25.34a33.81,33.81,0,0,0-17.31-6.68c-14.68-1.6-26.35,3.58-35,15.41-3.09,4.21-5.75,8.75-8.49,13.21-8.71,14.18-17.33,28.42-26.07,42.58-3.28,5.32-6.89,10.43-10.23,15.71C124.36,257,117.07,269,109.47,280.78A47.3,47.3,0,0,0,102,301.15c-.61,5.24,1.08,10.24,2.5,15.19,2,7.09,6.9,12.37,12.23,16.91C123,338.65,130.75,341.17,140.13,341.39Zm194.41-36.32c-.28,19.56,17.91,37.82,40,36.21,18.2-1.33,35.88-17.3,35-38.47-.8-19.45-17.57-35.35-38.22-35.27C351,267.61,333.27,285.4,334.54,305.07Z"/>
    <path class="cls-2" d="M322.35,157.86c19.36.38,34.41,13.15,37.58,31.7,1.76,10.27-1.2,19.51-6.68,28.21q-31.86,50.64-63.51,101.41c-4.08,6.54-8.55,12.59-15.36,16.61a38.75,38.75,0,0,1-14.2,4.94,35.39,35.39,0,0,1-27-6.46,38,38,0,0,1-14.83-22.07c-3.24-12.44,1-23,7.5-33.32C241.07,255,256,231,271,207c6.64-10.61,13-21.41,19.81-31.9C298.28,163.68,309.2,158.23,322.35,157.86Z"/>
    <path class="cls-3" d="M139,341.39c-9.41-.22-17.15-2.74-23.5-8.14-5.36-4.54-10.24-9.82-12.28-16.91-1.43-4.95-3.12-9.95-2.5-15.19a47,47,0,0,1,7.53-20.37c7.62-11.77,14.93-23.74,22.44-35.59,3.35-5.28,7-10.39,10.26-15.71,8.77-14.16,17.41-28.4,26.15-42.58,2.75-4.46,5.41-9,8.52-13.21,8.72-11.83,20.43-17,35.15-15.41A34,34,0,0,1,228.09,165c8.34,6.41,13.92,14.58,15.39,25.34,1.41,10.33-1.58,19.32-7,27.92q-24.4,38.58-48.57,77.33c-5.69,9.06-11.21,18.23-17.09,27.16-6.21,9.42-14.54,16-26,17.89C142.55,341,140.3,341.21,139,341.39Z"/>
    <path class="cls-4" d="M334,305.07c-1.28-19.67,16.53-37.46,36.93-37.53,20.72-.08,37.54,15.82,38.34,35.27.86,21.17-16.88,37.14-35.13,38.47C352,342.89,333.71,324.63,334,305.07Z"/>
  </g>
</svg>
