<svg id="Camada_1" data-name="Camada 1" xmlns="http://www.w3.org/2000/svg" viewBox="0 0 620.5 251.49">
  <defs>
    <style>
      .cls-1 {
        fill: #393e47;
      }

      .cls-2, .cls-3 {
        fill: #fff;
      }

      .cls-3 {
        stroke: #393e47;
        stroke-miterlimit: 10;
      }
    </style>
  </defs>
  <title>LogoFinal</title>
  <g>
    <g>
      <path class="cls-1" d="M111.5,255H107v-.12Q109.27,255,111.5,255Z" transform="translate(-17.5 -4)"/>
      <path class="cls-1" d="M111.5,67c-1.51,0-3,0-4.5.11V67Z" transform="translate(-17.5 -4)"/>
      <path class="cls-1" d="M266.88,67l-.07.16-.12-.16Z" transform="translate(-17.5 -4)"/>
      <path class="cls-1" d="M550,67v.19q-3-.19-6-.19Z" transform="translate(-17.5 -4)"/>
      <path class="cls-1" d="M550,254.81V255h-6Q547,255,550,254.81Z" transform="translate(-17.5 -4)"/>
      <g>
        <path class="cls-1" d="M111.5,252.5c-1.44,0-2.91,0-4.37-.12-21.78-1-43.22-9.72-58.85-23.8C29.78,211.89,20,188.53,20,161a91.33,91.33,0,0,1,87.12-91.39c1.51-.07,3-.11,4.38-.11l2.2,0a90.41,90.41,0,0,1,55.46,20.58l3.34,2.72.71-4.25a49.52,49.52,0,0,1,8.16-20.16,50.49,50.49,0,0,1,83.26,0l.05.07.06.08,2.39,3.61,1.92-3.9q.06-.15.12-.27A108.51,108.51,0,0,1,473.88,96.18l.84,4.85,3.42-3.54A90.72,90.72,0,0,1,544,69.5c2,0,4,.06,5.83.18a91.5,91.5,0,0,1,0,182.63c-1.86.13-3.83.19-5.84.19Z" transform="translate(-17.5 -4)"/>
        <path class="cls-2" d="M367,9A105.92,105.92,0,0,1,471.41,96.61l1.7,9.69,6.83-7.08A88.27,88.27,0,0,1,544,72c2,0,3.86.06,5.69.18a89,89,0,0,1,0,177.64c-1.81.12-3.72.18-5.67.18H111.5c-1.4,0-2.82,0-4.26-.11-21.2-1-42.08-9.46-57.28-23.17C32,210.52,22.5,187.8,22.5,161a89,89,0,0,1,84.73-88.9c1.5-.07,2.9-.1,4.27-.1l2.15,0a88,88,0,0,1,53.93,20l6.68,5.45,1.41-8.5a47.15,47.15,0,0,1,7.76-19.16,48,48,0,0,1,79.14,0l.12.18,0,0,4.7,7,3.85-7.68c.07-.13.12-.25.17-.36A106,106,0,0,1,367,9m0-5A111,111,0,0,0,266.88,67l-.07.16-.12-.16a53,53,0,0,0-87.38,0,52.39,52.39,0,0,0-8.57,21.17,93.49,93.49,0,0,0-57-21.14l-2.27,0c-1.51,0-3,0-4.5.11A94,94,0,0,0,17.5,161c0,62,47.79,91.88,89.5,93.88q2.27.12,4.5.12H544q3,0,6-.19a94,94,0,0,0,0-187.62q-3-.19-6-.19a93.73,93.73,0,0,0-67.66,28.75A110.94,110.94,0,0,0,367,4Z" transform="translate(-17.5 -4)"/>
      </g>
    </g>
    <g>
      <path class="cls-2" d="M75.12,198.37q-3.9-4.43-3.9-8t6.45-9.34a11.86,11.86,0,0,1,8-3.32q4.2,0,11.71,6.92a22.3,22.3,0,0,0,6,4.49,15.13,15.13,0,0,0,7.2,2.15q14,0,14-10.51,0-3.18-3.83-5.33a29.73,29.73,0,0,0-9.53-3.11,86.64,86.64,0,0,1-12.3-3.11,84.45,84.45,0,0,1-12.31-5A23.86,23.86,0,0,1,77,155a28.5,28.5,0,0,1-3.83-15.14q0-12.17,9.83-21.23t26.78-9.06a59.1,59.1,0,0,1,16.43,2.14q7.44,2.15,10.28,4.36l3.75,2.63c3.1,2.67,4.66,4.93,4.66,6.77s-1.2,4.38-3.61,7.61q-5.1,6.91-10.5,6.92-3.15,0-7.8-2.77a16,16,0,0,1-1.73-1.38,23.23,23.23,0,0,0-2.32-1.8,16,16,0,0,0-8-1.8,14.4,14.4,0,0,0-8.1,2.14,6.77,6.77,0,0,0-3.23,5.95c0,2.54,1.27,4.59,3.83,6.16a25,25,0,0,0,9.52,3.18,117.93,117.93,0,0,1,12.46,2.56,82.56,82.56,0,0,1,12.45,4.21,21.32,21.32,0,0,1,9.53,8.65q3.82,6.15,3.83,15.14a31.45,31.45,0,0,1-3.9,15.84,28.39,28.39,0,0,1-10.21,10.58,49.37,49.37,0,0,1-26,7.33,54.38,54.38,0,0,1-13.35-1.59,37.85,37.85,0,0,1-10.21-3.94q-7.95-4.42-11.1-8.58Z" transform="translate(-17.5 -4)"/>
      <path class="cls-2" d="M203.87,164.21l-9.75-.55v19.08q0,3.73,1.27,5.4c.85,1.1,2.45,1.66,4.8,1.66s4.15.07,5.4.2a11.28,11.28,0,0,1,4,1.32q3.45,1.8,3.45,9.26,0,8.71-4.2,10.65a14.71,14.71,0,0,1-4,1.18,44.72,44.72,0,0,1-5,.21q-15.62,0-23.71-6.5t-8.1-22V163.66a44,44,0,0,1-6.16.41,7.11,7.11,0,0,1-5.47-2.35c-1.46-1.57-2.18-4.24-2.18-8a32.22,32.22,0,0,1,.75-8.23,7.26,7.26,0,0,1,2.1-3.67,9.78,9.78,0,0,1,6-1.79l5,.55V126.31a35.59,35.59,0,0,1,.22-4.7,8.24,8.24,0,0,1,1.43-3.32c1.29-2.3,5.15-3.46,11.55-3.46q10.2,0,12.15,5.12a23.91,23.91,0,0,1,.76,7.06v13.55q6.6-.56,10-.55a49.28,49.28,0,0,1,5.11.2,12.77,12.77,0,0,1,4,1.32q3.9,1.8,3.9,10.65t-4,10.65a15.07,15.07,0,0,1-4,1.17A46.89,46.89,0,0,1,203.87,164.21Z" transform="translate(-17.5 -4)"/>
      <path class="cls-2" d="M235.68,148.86a43.07,43.07,0,0,1,28.81-10.79,42.63,42.63,0,0,1,28.66,10.72,34.46,34.46,0,0,1,12.46,27.31,33.91,33.91,0,0,1-6.46,20.4,39.46,39.46,0,0,1-15.68,13.14,45.41,45.41,0,0,1-19.13,4.22,43.76,43.76,0,0,1-19.21-4.49,41.52,41.52,0,0,1-15.68-13.28,33,33,0,0,1-6.38-19.85A34.48,34.48,0,0,1,235.68,148.86Zm18.76,37.27a16.76,16.76,0,0,0,9.75,3.39,17.17,17.17,0,0,0,9.9-3.46q4.95-3.45,5-10.23t-4.66-10.1a17,17,0,0,0-10.05-3.32,16.54,16.54,0,0,0-10,3.46q-4.66,3.47-4.66,10.16T254.44,186.13Z" transform="translate(-17.5 -4)"/>
      <path class="cls-2" d="M369.08,140.56a10.25,10.25,0,0,1,4.72,2.83q1.88,2,1.88,6.44a20.58,20.58,0,0,1-2.85,9.68q-2.85,5.25-8.25,5.25a12.49,12.49,0,0,1-5.18-1.1,16.15,16.15,0,0,0-6.53-1.11,12.46,12.46,0,0,0-7.58,2.63,7.73,7.73,0,0,0-3.52,6.36v29a36.92,36.92,0,0,1-.23,4.78,10.46,10.46,0,0,1-1.42,3.66q-2.25,3.6-11.71,3.6-7.2,0-10.35-2.35a8,8,0,0,1-2.7-6V151.76a37.25,37.25,0,0,1,.22-4.77,10.81,10.81,0,0,1,1.28-3.53q2.1-3.74,11.7-3.73,9,0,11.26,3.18a7.57,7.57,0,0,1,1.65,4.56,25.13,25.13,0,0,1,2.17-2.35,28.31,28.31,0,0,1,6.08-3.73A18.6,18.6,0,0,1,357.9,139a42.93,42.93,0,0,1,5.93.34A41.1,41.1,0,0,1,369.08,140.56Z" transform="translate(-17.5 -4)"/>
      <path class="cls-2" d="M409.74,149.41q7-9.81,17-9.82,15.3,0,22.81,12a47,47,0,0,1,4-4.35,32.93,32.93,0,0,1,7.43-5,22.18,22.18,0,0,1,10.5-2.7,26.65,26.65,0,0,1,20.11,8.51q8.1,8.51,8.1,28.14L500,185l12-5-12,11-.38,9.45a37.25,37.25,0,0,1-.22,4.77,10.51,10.51,0,0,1-1.43,3.66q-2,3.74-11.55,3.74t-11.56-3.88a12,12,0,0,1-1.27-3.66C473.44,204,486,195.12,486,193l-13,5,.36-21.9q0-12-9.3-12-5.25,0-7.13,3.18t-1.87,9v24.21a36.71,36.71,0,0,1-.23,4.84,10.56,10.56,0,0,1-1.42,3.59q-2.12,3.74-11.71,3.74t-11.55-3.88a12.09,12.09,0,0,1-1.28-3.66,37.25,37.25,0,0,1-.22-4.77V176.1q0-12-9.31-12-9,0-9,12v24.48a37.32,37.32,0,0,1-.22,4.78,10.51,10.51,0,0,1-1.43,3.66q-2.25,3.6-11.7,3.6t-11.56-3.74a12.17,12.17,0,0,1-1.27-3.59,36.71,36.71,0,0,1-.23-4.84V151.76a36.85,36.85,0,0,1,.23-4.77,9.42,9.42,0,0,1,1.42-3.53q2.25-3.74,10.65-3.73t11,2.49Q409.74,144.71,409.74,149.41Z" transform="translate(-17.5 -4)"/>
    </g>
    <polyline class="cls-3" points="529.99 175.8 515.36 182.47 523.88 160.75 501.92 117.73 490.31 103.44 521.8 107.39 539.34 138.92 566.04 101.08 601.5 79 565.1 141.49 545.39 166.26 572.35 150.06 551.22 172.84 487.82 248.64 512.28 190"/>
  </g>
</svg>
