<svg id="b2e9054a-ee61-494b-9a7c-ad961dd7adf8" data-name="Camada 1" xmlns="http://www.w3.org/2000/svg" viewBox="0 0 633 633"><defs><style>.bee253f7-f3e2-408d-b762-7590c93c7a15{fill:#a300e7;}.a637d558-be99-42fc-bfad-a086975cc53f{fill:#fff;}</style></defs><title>audio</title><circle class="bee253f7-f3e2-408d-b762-7590c93c7a15" cx="316.5" cy="316.5" r="316.5"/><path class="a637d558-be99-42fc-bfad-a086975cc53f" d="M187.66,307.48V463.82a16.85,16.85,0,0,0,33.7,0V307.48a16.85,16.85,0,0,0-33.7,0Z"/><path class="a637d558-be99-42fc-bfad-a086975cc53f" d="M134.79,480.86h37.09V295.25a24,24,0,0,0,.26-2.69c0-80.08,64.64-145.22,144.07-145.22s144.06,65.14,144.06,145.22a22.52,22.52,0,0,0,.37,3.59V480.86h37.09c25.82,0,46.77-21.67,46.77-48.4v-96.8c0-22-14.28-40.61-33.77-46.46C508.93,182.82,422.4,96.8,316.22,96.8s-192.75,86-194.53,192.44C102.23,295.1,88,313.65,88,335.68v96.78C88,459.17,109,480.86,134.79,480.86Z"/><path class="a637d558-be99-42fc-bfad-a086975cc53f" d="M411.18,307.48V463.82a16.84,16.84,0,1,0,33.68,0V307.48a16.84,16.84,0,0,0-33.68,0Z"/><path class="a637d558-be99-42fc-bfad-a086975cc53f" d="M334,204.91l46,95c1.92,3.86,2.89,6.76,2.89,8.68q0,6.14-9.87,11.07-5.79,2.89-9.11,2.89A9.12,9.12,0,0,1,358.4,321a10.11,10.11,0,0,1-3.06-3.23q-.94-1.71-2.64-5.11l-8.85-18.38H296.7l-8.85,18.38c-1.14,2.27-2,3.91-2.64,4.94a12.39,12.39,0,0,1-3.06,3.15,8.82,8.82,0,0,1-5.45,1.61q-3.31,0-9.11-2.89-9.87-4.77-9.87-10.9c0-1.92,1-4.82,2.89-8.68l46-95.15a15,15,0,0,1,5.7-6.3,15.16,15.16,0,0,1,8.09-2.38Q329.56,196.06,334,204.91Zm-13.79,40.85L309,269.08h22.63Z"/></svg>