<svg id="b3f7eeca-9c28-4024-9291-75278c191ec5" data-name="Camada 1" xmlns="http://www.w3.org/2000/svg" viewBox="0 0 633 633"><defs><style>.a8cd78d1-162f-4726-8652-b36d5c6e714d{fill:#e7ca00;}.ba06d0aa-b700-4dbb-8709-33a01ab6aab4{fill:#fff;}</style></defs><title>economiza</title><circle class="a8cd78d1-162f-4726-8652-b36d5c6e714d" cx="316.5" cy="316.5" r="316.5"/><g id="a1118621-5c4a-40f7-9a06-953d768ea09b" data-name="Layer 1"><path class="ba06d0aa-b700-4dbb-8709-33a01ab6aab4" d="M316.38,180.9c-64.21,0-116.45,50.53-116.45,112.6,0,40.29,16.35,64.25,28.39,81.91,7.4,10.87,11.6,17.34,11.6,23.84,0,14.61,7.82,28.37,21.74,38.69.35,8.66,1.63,29.81,1.63,29.81v0c.22,6,3.38,18.31,24.07,25.19a34.94,34.94,0,0,0,9.52,9.36,14.67,14.67,0,0,0,8.22,2.52h22.55a14.59,14.59,0,0,0,8.23-2.52,34.76,34.76,0,0,0,9.51-9.36c20.88-6.95,23.92-19.4,24.09-25.23,0,0,1.27-21.11,1.62-29.78,13.91-10.33,21.75-24.08,21.75-38.69,0-6.51,4.18-13,11.66-23.93,11.95-17.51,28.33-41.5,28.33-81.84C432.83,231.41,380.59,180.9,316.38,180.9Zm63.73,177.93c-8.6,12.61-16.72,24.52-16.72,40.42,0,7-6.32,12.62-11,15.87h-72c-4.71-3.24-11-8.88-11-15.87,0-15.9-8.12-27.81-16.82-40.57-10.86-15.92-23.17-34-23.17-65.17,0-45.83,39-83.14,87-83.16s87,37.3,87,83.14C403.39,324.75,391.05,342.78,380.11,358.83Z"/><path class="ba06d0aa-b700-4dbb-8709-33a01ab6aab4" d="M316.38,158.81a7.35,7.35,0,0,0,7.35-7.36V129.36a7.36,7.36,0,1,0-14.72,0v22.09A7.36,7.36,0,0,0,316.38,158.81Z"/><path class="ba06d0aa-b700-4dbb-8709-33a01ab6aab4" d="M238.16,174.38A7.36,7.36,0,1,0,250.91,167l-11-19.13a7.37,7.37,0,0,0-12.76,7.37Z"/><path class="ba06d0aa-b700-4dbb-8709-33a01ab6aab4" d="M195.63,216.91l-19.13-11a7.37,7.37,0,1,0-7.36,12.76l19.13,11a7.37,7.37,0,0,0,7.36-12.76Z"/><path class="ba06d0aa-b700-4dbb-8709-33a01ab6aab4" d="M180.06,295.13a7.37,7.37,0,0,0-7.37-7.36H150.61a7.36,7.36,0,0,0,0,14.72h22.08A7.36,7.36,0,0,0,180.06,295.13Z"/><path class="ba06d0aa-b700-4dbb-8709-33a01ab6aab4" d="M188.27,360.6l-19.14,11a7.36,7.36,0,1,0,7.36,12.75l19.12-11a7.35,7.35,0,1,0-7.34-12.74Z"/><path class="ba06d0aa-b700-4dbb-8709-33a01ab6aab4" d="M463.62,371.64l-19.12-11a7.36,7.36,0,0,0-7.38,12.74l19.13,11a7.26,7.26,0,0,0,3.67,1,7.36,7.36,0,0,0,3.7-13.73Z"/><path class="ba06d0aa-b700-4dbb-8709-33a01ab6aab4" d="M482.14,287.78H460.08a7.36,7.36,0,0,0,0,14.72h22.08a7.36,7.36,0,1,0,0-14.71Z"/><path class="ba06d0aa-b700-4dbb-8709-33a01ab6aab4" d="M440.81,230.64a7.27,7.27,0,0,0,3.67-1l19.13-11a7.36,7.36,0,1,0-7.35-12.75l-19.13,11a7.36,7.36,0,0,0,3.68,13.73Z"/><path class="ba06d0aa-b700-4dbb-8709-33a01ab6aab4" d="M384.54,177.06a7.19,7.19,0,0,0,3.67,1,7.37,7.37,0,0,0,6.38-3.68l11-19.12a7.36,7.36,0,0,0-12.75-7.36l-11,19.12A7.36,7.36,0,0,0,384.54,177.06Z"/><path class="ba06d0aa-b700-4dbb-8709-33a01ab6aab4" d="M306.5,339.6c.89,6.51,4,8.31,9.88,8.31s9-1.8,9.88-8.31l6.95-52.52a88.62,88.62,0,0,0,.88-10.54v-26c0-11.44-6.5-17.28-17.72-17.28s-17.73,5.83-17.73,17.28v26a86.64,86.64,0,0,0,.89,10.54Z"/><path class="ba06d0aa-b700-4dbb-8709-33a01ab6aab4" d="M316.38,362.48a18.41,18.41,0,1,0,18.4,18.41A18.49,18.49,0,0,0,316.38,362.48Z"/></g></svg>