<svg id="aa38c8d8-026f-4c46-9eea-c12d78b7e76c" data-name="Camada 1" xmlns="http://www.w3.org/2000/svg" viewBox="0 0 395 392"><defs><style>.a6be2ce1-20eb-4c37-a9cb-8516c1095367{fill:red;}.acb012e6-ac97-4297-879a-102d231bd17a{fill:none;stroke-width:7px;}.a0dee714-db78-4e3d-8ccc-e32ed6b56005,.acb012e6-ac97-4297-879a-102d231bd17a{stroke:#000;stroke-miterlimit:10;}.e44c495c-14d1-49b0-a05e-c59b19c0104f{fill:#ebebeb;}.a0dee714-db78-4e3d-8ccc-e32ed6b56005{fill:#fff;stroke-width:10px;}</style></defs><title>pokemonIcon</title><path class="a6be2ce1-20eb-4c37-a9cb-8516c1095367" d="M4,192.5A192.25,192.25,0,0,1,332.2,59.81,190.94,190.94,0,0,1,388.47,192.5Z" transform="translate(3)"/><path d="M196.25,7A188.57,188.57,0,0,1,384.88,189H7.62A188.58,188.58,0,0,1,196.25,7m0-7A195.74,195.74,0,0,0,.5,195.75V196H392v-.25A195.74,195.74,0,0,0,196.25,0Z" transform="translate(3)"/><polyline class="acb012e6-ac97-4297-879a-102d231bd17a" points="395 196 3.5 196 3 196"/><path class="e44c495c-14d1-49b0-a05e-c59b19c0104f" d="M196.25,388.5A192.23,192.23,0,0,1,4,199.5H388.47a192.23,192.23,0,0,1-192.22,189Z" transform="translate(3)"/><path d="M384.88,203A188.69,188.69,0,0,1,62.78,329.72,188.1,188.1,0,0,1,7.62,203H384.88m7.12-7H.5v.25a195.75,195.75,0,1,0,391.5,0V196Z" transform="translate(3)"/><polyline class="acb012e6-ac97-4297-879a-102d231bd17a" points="3 196 3.5 196 395 196"/><path class="a0dee714-db78-4e3d-8ccc-e32ed6b56005" d="M137.94,82.75C152.72,80.11,172.08,78,196.89,78c30.08,0,52.32,7,66.49,19.72,12.86,11.34,20.85,28.53,20.85,49.65,0,21.49-6.4,38.45-18.43,50.75-16.35,17.33-42.55,26-72.48,26-9.3,0-17.7-.34-24.77-2.2V317H137.94ZM168.55,197c6.81,2,15.34,2.67,25.4,2.67,37.14,0,59.58-18.23,59.58-50.64,0-31.39-22.41-46.74-56-46.74-13.51,0-23.56,1.26-29,2.42Z" transform="translate(3)"/></svg>