<svg id="efe979b8-9975-4734-b679-f9af20fec0b1" data-name="Capa 1" xmlns="http://www.w3.org/2000/svg" viewBox="0 0 512 512"><defs><style>.f32e189c-16f6-47b6-b8d9-b5aa18b9f4f5{fill:#5adafd;}.a656eca4-3279-48ee-8964-34239f256a94{fill:#f2f2f2;}.a0ef6c1b-493d-4215-95d6-874f7452b585{font-size:134.93px;}.a0ef6c1b-493d-4215-95d6-874f7452b585,.b6bbdf81-6f62-4bc3-9099-e60edf46d043,.fc3684d3-419e-49c3-b9f4-bd57e00e0eb9{fill:#fff;font-family:MyriadPro-Regular, Myriad Pro;}.b6bbdf81-6f62-4bc3-9099-e60edf46d043{font-size:91.28px;}.fc3684d3-419e-49c3-b9f4-bd57e00e0eb9{font-size:73.31px;}</style></defs><title>reactCalc</title><path class="f32e189c-16f6-47b6-b8d9-b5aa18b9f4f5" d="M512,256A256,256,0,1,1,0,256C0,114.61,114.61,0,256,0S512,114.61,512,256Z"/><path class="a656eca4-3279-48ee-8964-34239f256a94" d="M408.55,400.14c-1.21-8.05-2.79-16.35-4.76-24.83q-2.6-11.18-6-22.76A497.46,497.46,0,0,0,374.19,290q-6.31-14-13.58-28c-4.27-8.22-8.76-16.46-13.49-24.64s-9.6-16.2-14.6-24Q324,200.1,315.09,187.63a494.59,494.59,0,0,0-42.4-51.7q-8.29-8.76-16.69-16.59c-6.36-6-12.76-11.48-19.14-16.55-41.68-33.09-79-43-105.09-28s-36.14,52.34-28.32,105c1.19,8.05,2.79,16.35,4.76,24.83q2.58,11.17,6,22.76A494.87,494.87,0,0,0,137.81,290q6.3,13.95,13.58,28,6.39,12.36,13.49,24.65t14.59,24q8.5,13.29,17.43,25.75A495.7,495.7,0,0,0,239.3,444q8.3,8.76,16.7,16.6c6.36,6,12.76,11.47,19.13,16.54,15.33,12.18,30.07,21.21,43.87,27a254.8,254.8,0,0,0,89.28-42.38C412,444.86,412.1,424.09,408.55,400.14ZM385.08,458c-3,13.14-8.64,22.15-16.63,26.76s-18.58,4.95-31.48,1c-14-4.27-30.3-13.61-47.21-27Q281.24,452,272.69,444q-8.37-7.77-16.7-16.58c-9.51-10.07-18.91-21.08-28.09-32.9q-9.18-11.83-18-24.69c-8.54-12.4-16.78-25.46-24.62-39.05s-15-27.25-21.5-40.84q-6.72-14.06-12.37-28c-5.65-13.86-10.49-27.51-14.45-40.77q-3.45-11.61-6-22.75-2.61-11.35-4.22-22.14c-3.17-21.35-3.1-40.16.19-54.4,3-13.14,8.64-22.15,16.63-26.76a29.82,29.82,0,0,1,15.16-3.74A56.16,56.16,0,0,1,175,94.19c14,4.26,30.3,13.61,47.21,27,5.68,4.51,11.39,9.42,17.07,14.72S250.46,146.65,256,152.5c9.52,10.07,18.92,21.08,28.11,32.91q9.18,11.84,18,24.69c8.53,12.4,16.77,25.46,24.61,39s15,27.25,21.5,40.84c4.47,9.38,8.6,18.73,12.36,28,5.66,13.86,10.49,27.51,14.45,40.76,2.3,7.74,4.32,15.32,6,22.75s3.14,15,4.2,22.14C388.44,425,388.37,443.76,385.08,458Z"/><path class="a656eca4-3279-48ee-8964-34239f256a94" d="M427.68,213q-11.37-4.49-23.9-8.31-11-3.33-22.73-6.15a494.71,494.71,0,0,0-66-10.87c-10.15-1-20.5-1.75-31-2.22q-13.89-.65-28.1-.65t-28.11.65q-15.75.71-31,2.22a494.56,494.56,0,0,0-65.95,10.87q-11.75,2.81-22.73,6.15Q95.7,208.46,84.31,213C34.82,232.5,7.54,259.86,7.54,290s27.28,57.48,76.77,77q11.37,4.49,23.89,8.31,11,3.33,22.73,6.14a494.57,494.57,0,0,0,66,10.88q15.22,1.5,31,2.22,13.89.65,28.1.64t28.09-.64q15.75-.72,31-2.22a493.22,493.22,0,0,0,66-10.88q11.74-2.81,22.73-6.15,12.49-3.81,23.89-8.3c49.5-19.55,76.77-46.9,76.77-77S477.18,232.5,427.68,213Zm38.37,104.79c-10.68,10-26.94,19.44-47,27.37q-10.16,4-21.29,7.43-10.92,3.36-22.7,6.16c-13.46,3.21-27.71,5.84-42.53,7.88q-14.83,2.06-30.39,3.27c-15,1.2-30.45,1.81-46.13,1.81s-31.12-.6-46.13-1.8q-15.54-1.22-30.4-3.28c-14.83-2-29.07-4.67-42.54-7.88-7.83-1.86-15.41-3.91-22.69-6.16S99.71,347.78,93,345.12c-20.07-7.93-36.33-17.39-47-27.37-9.86-9.2-14.87-18.54-14.87-27.77s5-18.57,14.87-27.77c10.68-10,26.94-19.44,47-27.37q10.14-4,21.29-7.43c7.28-2.24,14.86-4.3,22.69-6.16,13.47-3.21,27.71-5.84,42.54-7.88q14.84-2.06,30.4-3.28c15-1.19,30.45-1.8,46.13-1.8s31.12.61,46.13,1.81q15.54,1.2,30.39,3.27c14.82,2,29.07,4.67,42.53,7.88q11.76,2.79,22.7,6.16,11.13,3.42,21.29,7.43c20.07,7.93,36.33,17.39,47,27.37,9.86,9.2,14.86,18.55,14.86,27.77S475.91,308.55,466.05,317.75Z"/><path class="a656eca4-3279-48ee-8964-34239f256a94" d="M380.22,74.82c-26.09-15.06-63.41-5.13-105.09,28-6.37,5.07-12.77,10.59-19.13,16.55q-8.38,7.81-16.7,16.6a497,497,0,0,0-42.41,51.69q-8.91,12.45-17.42,25.74-7.5,11.7-14.59,24T151.39,262q-7.26,14-13.58,28a495.44,495.44,0,0,0-23.57,62.57q-3.45,11.58-6,22.77c-2,8.48-3.56,16.77-4.75,24.82-3.56,23.94-3.42,44.7.26,61.65A254.65,254.65,0,0,0,193,504.18c13.81-5.8,28.54-14.84,43.87-27,6.38-5.07,12.78-10.59,19.14-16.54q8.38-7.81,16.69-16.59a495.85,495.85,0,0,0,42.4-51.7q8.93-12.45,17.43-25.75,7.51-11.7,14.6-24T360.61,318q7.26-14,13.58-28a496.88,496.88,0,0,0,23.56-62.57q3.44-11.57,6-22.76c2-8.48,3.56-16.78,4.77-24.84C416.36,127.16,406.31,89.88,380.22,74.82Zm-5.16,146.43c-4,13.26-8.8,26.9-14.45,40.76q-5.66,13.88-12.37,28c-6.46,13.59-13.65,27.26-21.5,40.84s-16.08,26.64-24.61,39q-8.83,12.86-18,24.7c-9.18,11.82-18.58,22.83-28.1,32.9q-8.3,8.78-16.69,16.57t-17.07,14.71c-16.91,13.43-33.23,22.77-47.21,27-12.9,3.93-23.5,3.6-31.48-1S130,471.14,126.92,458c-3.3-14.24-3.37-33.05-.19-54.4,1.06-7.18,2.47-14.58,4.2-22.14s3.71-15,6-22.75c4-13.26,8.8-26.91,14.46-40.77q5.64-13.87,12.36-28c6.47-13.59,13.65-27.26,21.5-40.85s16.08-26.64,24.62-39q8.82-12.84,18-24.68c9.19-11.83,18.59-22.84,28.1-32.91q8.31-8.79,16.7-16.57,8.54-7.94,17.07-14.71C306.67,107.8,323,98.45,337,94.19a56.11,56.11,0,0,1,16.32-2.73,29.79,29.79,0,0,1,15.16,3.74c8,4.61,13.59,13.62,16.63,26.76,3.29,14.24,3.36,33.05.18,54.4q-1.59,10.77-4.21,22.14C379.37,205.93,377.35,213.51,375.06,221.25Z"/><circle class="a656eca4-3279-48ee-8964-34239f256a94" cx="256" cy="289.98" r="46.7" transform="translate(-54.11 521.19) rotate(-85.27)"/><text class="a0ef6c1b-493d-4215-95d6-874f7452b585" transform="translate(131.12 176.95)">+</text><text class="a0ef6c1b-493d-4215-95d6-874f7452b585" transform="translate(316.7 176.95)">-</text><text class="a0ef6c1b-493d-4215-95d6-874f7452b585" transform="translate(63.7 353.95)">*</text><text class="b6bbdf81-6f62-4bc3-9099-e60edf46d043" transform="translate(411.13 330.41)">²</text><text class="fc3684d3-419e-49c3-b9f4-bd57e00e0eb9" transform="translate(149.63 460.37)">/</text><text class="fc3684d3-419e-49c3-b9f4-bd57e00e0eb9" transform="translate(320.63 454.37)">√</text></svg>