<svg id="ac5ec80a-d6d2-4841-90ac-c9a051a3f9fb" data-name="Camada 1" xmlns="http://www.w3.org/2000/svg" viewBox="0 0 633 633"><defs><style>.b23020d7-d1fa-4d00-a0b5-6e196ee61732{fill:#2a2a2a;}.b53fb308-c3b9-4428-aa12-2a70795d31cd{fill:#f4f4f4;}</style></defs><title>vitoff</title><circle class="b23020d7-d1fa-4d00-a0b5-6e196ee61732" cx="316.5" cy="316.5" r="316.5"/><path id="a9983902-bfee-42c5-9732-b7041d5aed46" data-name="Caminho 1" class="b53fb308-c3b9-4428-aa12-2a70795d31cd" d="M411.94,394.67l3.29-12.54c-1.22-.68-2.45-1.4-3.67-2.07-5.87,9.8-12.09,19.43-17.53,29.45a146.68,146.68,0,0,1-11.12,23c-18.91,23.28-38,46.65-58.71,68.29-16.57,17.25-21.43,14.93-33.13-5.53-4.61-8-14.37-13-19.43-20.9-8.79-13.65-15.92-28.4-23.42-42.85-5.24-10.1-9.95-20.54-16.44-34.1-29,41.33-55.86,79.49-81.81,116.43-49.11-20.2-61.24-61-62.08-104.81C86.58,339,89.32,268.86,90.73,198.75c.08-3.51,4-10,5.32-9.8a25.24,25.24,0,0,1,14.84,6c28.36,32.83,45.22,69.85,38.2,114.43-3.33,21.3-8.5,42.35-11.83,63.69a82.55,82.55,0,0,0,1.73,20.5c1.48.3,3,.55,4.4.85,10.61-14.2,21.25-28.32,31.73-42.6,12.21-16.57,23.59-33.84,36.6-49.7,12.34-15.13,27.69-27.86,39.22-43.57A196.37,196.37,0,0,0,271.14,218c4.18-10,10.27-14.28,19.15-7.6a61.44,61.44,0,0,1,19.9,21.51,285.8,285.8,0,0,1,14.7,48.31,23.67,23.67,0,0,1-3.8,14.33c-13.53,25.54-27.39,50.91-41,76.3.58,1.06.88,2.28,1.65,2.84,25,18.38,24.72,18,45.25-6,39-45.73,77.46-91.92,118-136.2,25.23-27.52,45.22-34.23,73.79-32.92-.34,3.33-.72,6.68-1.26,11.87C523,206.46,527,204,530.47,201c8.37-7.27,15.56-13.83,26-1.32,3.84,4.61,13.18,4.61,21.46,7.15-3.76,5.75-7,10.57-10.86,16.65,14.5-.68,20.67-21.73,39.43-11-18.17,15.25-30.85,34.36-54.73,39.8a33.55,33.55,0,0,0-14.24,9c-25.11,24.13-48,51.14-75.48,72-17.83,13.52-20.79,34.61-35.33,48.64a143.45,143.45,0,0,0-11.58,14.41Z"/></svg>