<svg xmlns="http://www.w3.org/2000/svg" width="60.414" height="59.324" viewBox="0 0 60.414 59.324"><defs><style>.a{fill:white;}</style></defs><path class="a" d="M44.923,48.489s2.443-1.978.583-3.956-3.668.574-3.668.574l-18.7,19.907s-4.379,6.016-7.708,2.378,2.232-8.208,2.232-8.208l24.514-26.1s5.721-6.709,11.1-.988-.95,11.827-.95,11.827L24.786,73.253S15.972,84.091,7.814,75.4,9.937,57.441,9.937,57.441L30.849,35.172s2.342-2.082.587-3.956-3.714.625-3.714.625l-24,25.546S-5.332,67.964,4.784,78.73s20.056,1.13,20.056,1.13L57.82,44.745s6.6-7.748-1.268-16.128S41.4,27.263,41.4,27.263L13.025,57.47s-7.268,6.294-.673,13.31,12.4-.827,12.4-.827Z" transform="translate(0.004 -24.506)"/></svg>