<svg xmlns="http://www.w3.org/2000/svg" viewBox="0 0 3904 64" width="3904" height="64"><g  fill="#ffffff" ><path d="M4.62 12.8h54.77c1.44-.276 2.721-1.093 3.578-2.283.857-1.19 1.227-2.664 1.032-4.117.19-1.453-.182-2.924-1.038-4.113C62.106 1.098 60.828.28 59.39 0H4.62C3.183.282 1.905 1.101 1.047 2.289.19 3.476-.185 4.947 0 6.4c-.194 1.455.176 2.93 1.035 4.12s2.143 2.007 3.585 2.28zM59.39 25.6H4.62c-1.437.282-2.715 1.101-3.573 2.289C.19 29.076-.185 30.547 0 32c-.195 1.45.171 2.922 1.024 4.111.853 1.19 2.13 2.009 3.566 2.289h54.8c1.44-.276 2.721-1.093 3.578-2.283.857-1.19 1.227-2.664 1.032-4.117.19-1.453-.182-2.924-1.038-4.113-.856-1.189-2.134-2.007-3.572-2.287zM59.39 51.2H4.62c-1.437.282-2.715 1.101-3.573 2.289C.19 54.676-.185 56.147 0 57.6c-.194 1.455.176 2.93 1.035 4.12S3.178 63.727 4.62 64h54.77c1.44-.276 2.721-1.093 3.578-2.283.857-1.19 1.227-2.664 1.032-4.117.19-1.453-.182-2.924-1.038-4.113-.856-1.189-2.134-2.007-3.572-2.287z"/></g><g  fill="#ffffff" ><path d="M68.622 12.803l54.76.023c1.44-.276 2.721-1.092 3.579-2.281.857-1.19 1.228-2.663 1.033-4.116.191-1.453-.18-2.924-1.036-4.113-.855-1.189-2.132-2.007-3.57-2.288L68.628.005c-1.437.281-2.715 1.1-3.574 2.287-.857 1.186-1.233 2.657-1.048 4.11-.195 1.454.174 2.929 1.033 4.119.858 1.191 2.141 2.008 3.583 2.282zM123.377 25.6H68.633c-1.436.282-2.714 1.102-3.571 2.291-.856 1.187-1.231 2.658-1.046 4.111-.195 1.449.171 2.921 1.023 4.11.853 1.189 2.129 2.008 3.564 2.288h54.774c1.439-.276 2.719-1.093 3.576-2.282.856-1.19 1.226-2.664 1.031-4.116.19-1.453-.182-2.924-1.037-4.113-.856-1.19-2.133-2.009-3.57-2.289zM123.382 51.174l-54.76.023c-1.437.283-2.714 1.102-3.571 2.29-.857 1.188-1.231 2.659-1.045 4.111-.194 1.455.177 2.93 1.036 4.119.86 1.189 2.144 2.006 3.586 2.278l54.76-.023c1.44-.277 2.72-1.094 3.576-2.284.857-1.19 1.226-2.664 1.03-4.117.19-1.453-.183-2.923-1.039-4.112-.857-1.188-2.135-2.005-3.573-2.285z"/></g><g  fill="#ffffff" ><path d="M132.629 12.811l54.73.096c1.439-.274 2.721-1.088 3.579-2.275.859-1.188 1.231-2.66 1.039-4.113.192-1.451-.177-2.922-1.03-4.111-.854-1.19-2.129-2.01-3.566-2.292L132.651.02c-1.436.279-2.715 1.096-3.574 2.281s-1.236 2.654-1.054 4.106c-.196 1.454.171 2.929 1.027 4.119.857 1.191 2.138 2.009 3.579 2.285zM187.335 25.6h-54.66c-1.434.282-2.71 1.106-3.566 2.299-.855 1.187-1.229 2.657-1.044 4.108-.194 1.449.171 2.919 1.022 4.107.851 1.188 2.126 2.006 3.558 2.286h54.69c1.436-.276 2.715-1.092 3.57-2.28.855-1.189 1.224-2.661 1.03-4.113.19-1.451-.181-2.921-1.035-4.11-.854-1.194-2.13-2.017-3.565-2.297zM187.359 51.093l-54.73.096c-1.436.285-2.711 1.105-3.567 2.294-.854 1.187-1.226 2.658-1.039 4.11-.191 1.454.181 2.927 1.042 4.115.86 1.187 2.145 2.002 3.586 2.272l54.73-.096c1.439-.278 2.717-1.097 3.572-2.288.854-1.19 1.221-2.664 1.024-4.115.187-1.453-.187-2.922-1.045-4.109-.857-1.186-2.136-2.001-3.573-2.279z"/></g><g  fill="#ffffff" ><path d="M196.64 12.825l54.678.224c1.438-.27 2.72-1.08 3.581-2.265.86-1.184 1.236-2.654 1.047-4.106.195-1.45-.17-2.92-1.02-4.11-.849-1.191-2.122-2.012-3.556-2.298L196.692.047c-1.435.276-2.714 1.088-3.576 2.27-.86 1.182-1.241 2.649-1.062 4.1-.199 1.452.164 2.926 1.017 4.117.852 1.192 2.131 2.013 3.569 2.291zM251.261 25.6h-54.512c-1.432.283-2.704 1.113-3.557 2.313-.852 1.186-1.225 2.654-1.04 4.104-.194 1.447.171 2.915 1.019 4.101.849 1.186 2.12 2.003 3.548 2.282h54.542c1.432-.275 2.707-1.09 3.56-2.276.853-1.187 1.221-2.657 1.028-4.107.189-1.45-.181-2.918-1.032-4.106-.851-1.201-2.124-2.03-3.556-2.311zM251.318 50.951l-54.678.224c-1.433.287-2.706 1.11-3.557 2.3-.851 1.188-1.219 2.658-1.029 4.108-.188 1.453.188 2.924 1.05 4.109.863 1.184 2.148 1.994 3.588 2.261l54.678-.223c1.436-.282 2.712-1.103 3.562-2.294.851-1.191 1.214-2.664 1.014-4.114.184-1.451-.194-2.918-1.053-4.102-.86-1.183-2.139-1.995-3.575-2.269z"/></g><g  fill="#ffffff" ><path d="M260.657 12.846l54.599.413c1.438-.265 2.721-1.07 3.584-2.25.864-1.179 1.244-2.646 1.06-4.096.2-1.447-.159-2.916-1.004-4.108-.844-1.192-2.112-2.017-3.543-2.307L260.754.086c-1.435.271-2.715 1.078-3.579 2.255-.864 1.177-1.249 2.641-1.075 4.091-.204 1.449.153 2.922 1.001 4.115.847 1.192 2.121 2.016 3.556 2.299zM315.152 25.6h-54.294c-1.427.284-2.695 1.124-3.544 2.333-.847 1.185-1.218 2.651-1.034 4.099-.193 1.444.171 2.909 1.016 4.091.845 1.184 2.11 1.999 3.532 2.277h54.324c1.426-.275 2.695-1.087 3.545-2.271.849-1.184 1.216-2.65 1.024-4.097.188-1.448-.179-2.914-1.026-4.101-.848-1.21-2.115-2.05-3.543-2.331zM315.256 50.741l-54.599.413c-1.43.292-2.698 1.118-3.544 2.308-.846 1.19-1.208 2.659-1.013 4.106-.182 1.452.197 2.92 1.063 4.1.865 1.179 2.151 1.984 3.591 2.246l54.599-.412c1.433-.286 2.704-1.11 3.549-2.303.846-1.193 1.203-2.665.998-4.112.179-1.45-.203-2.913-1.066-4.092-.862-1.179-2.142-1.985-3.578-2.254z"/></g><g  fill="#ffffff" ><path d="M324.68 12.875l54.493.669c1.436-.257 2.721-1.054 3.588-2.228.867-1.173 1.253-2.635 1.077-4.083.207-1.444-.146-2.912-.983-4.105-.837-1.194-2.098-2.023-3.525-2.319L324.837.14c-1.433.263-2.715 1.063-3.583 2.234-.867 1.171-1.258 2.63-1.092 4.078-.21 1.445.14 2.917.98 4.111.84 1.195 2.107 2.023 3.538 2.312zM379.003 25.6h-53.997c-1.421.285-2.683 1.138-3.525 2.36-.842 1.185-1.21 2.648-1.027 4.091-.191 1.441.171 2.901 1.011 4.08.84 1.18 2.098 1.992 3.512 2.269h54.026c1.418-.274 2.68-1.084 3.524-2.263.845-1.18 1.21-2.642 1.02-4.086.188-1.443-.177-2.906-1.019-4.093-.842-1.223-2.103-2.076-3.525-2.358zM379.173 50.456l-54.493.669c-1.426.298-2.687 1.128-3.526 2.321-.838 1.191-1.193 2.659-.992 4.102-.175 1.45.211 2.913 1.08 4.087.869 1.173 2.157 1.971 3.595 2.225l54.493-.669c1.429-.292 2.693-1.121 3.531-2.315.838-1.194 1.189-2.665.977-4.109.171-1.447-.217-2.906-1.083-4.079-.866-1.173-2.148-1.971-3.582-2.232z"/></g><g  fill="#ffffff" ><path d="M388.71 12.913l54.355 1.001c1.435-.247 2.721-1.035 3.593-2.2.872-1.166 1.266-2.622 1.099-4.067.215-1.439-.127-2.905-.955-4.101-.828-1.195-2.081-2.03-3.503-2.335L388.945.21c-1.432.254-2.715 1.043-3.588 2.207-.872 1.162-1.271 2.615-1.114 4.06-.219 1.441.121 2.911.952 4.108.83 1.196 2.089 2.03 3.515 2.328zM442.811 25.6h-53.612c-1.413.286-2.668 1.157-3.503 2.395-.834 1.184-1.198 2.643-1.016 4.082-.188 1.436.17 2.89 1.004 4.064.835 1.174 2.082 1.983 3.486 2.259h53.641c1.407-.272 2.659-1.079 3.497-2.254.838-1.174 1.202-2.631 1.013-4.069.187-1.439-.175-2.898-1.009-4.084-.835-1.239-2.087-2.11-3.501-2.393zM443.065 50.086l-54.355 1.001c-1.421.306-2.674 1.143-3.503 2.337-.829 1.194-1.174 2.66-.964 4.099-.166 1.447.228 2.904 1.102 4.07.874 1.165 2.163 1.952 3.6 2.197l54.354-1.001c1.424-.301 2.681-1.135 3.509-2.331.829-1.197 1.169-2.666.949-4.105.162-1.445-.234-2.898-1.105-4.063-.871-1.164-2.154-1.953-3.587-2.204z"/></g><g  fill="#ffffff" ><path d="M452.748 12.96l54.182 1.42c1.432-.236 2.72-1.011 3.598-2.167.879-1.155 1.283-2.603 1.128-4.046.225-1.432-.105-2.897-.921-4.095-.815-1.198-2.058-2.04-3.473-2.355L453.08.297c-1.429.242-2.714 1.02-3.594 2.173-.878 1.152-1.287 2.598-1.141 4.04-.23 1.434.098 2.902.916 4.102.819 1.199 2.068 2.04 3.487 2.348zM506.569 25.6H453.44c-1.403.287-2.648 1.18-3.472 2.44-.825 1.182-1.185 2.636-1.004 4.069-.186 1.43.17 2.877.996 4.044.826 1.168 2.062 1.972 3.452 2.247h53.157c1.394-.271 2.634-1.073 3.464-2.241.83-1.169 1.19-2.618 1.005-4.05.185-1.433-.172-2.887-.997-4.071-.827-1.261-2.068-2.154-3.472-2.438zM506.93 49.62l-54.182 1.42c-1.414.316-2.657 1.16-3.475 2.357-.816 1.196-1.149 2.661-.928 4.093-.155 1.445.249 2.894 1.13 4.049.88 1.155 2.171 1.931 3.605 2.164l54.182-1.42c1.417-.311 2.663-1.152 3.48-2.351.816-1.2 1.144-2.667.914-4.099.15-1.443-.256-2.888-1.133-4.042-.878-1.154-2.163-1.931-3.593-2.171z"/></g><g  fill="#ffffff" ><path d="M516.794 13.018l53.969 1.934c1.429-.222 2.72-.982 3.606-2.124.887-1.143 1.303-2.582 1.162-4.021.238-1.425-.076-2.887-.878-4.089-.801-1.201-2.031-2.053-3.438-2.379L517.247.405c-1.426.228-2.714.99-3.602 2.13-.886 1.14-1.307 2.576-1.176 4.014-.242 1.427.07 2.893.874 4.096.804 1.202 2.04 2.053 3.451 2.373zM570.272 25.6h-52.535c-1.391.289-2.623 1.209-3.436 2.494-.813 1.18-1.168 2.629-.989 4.054-.182 1.423.171 2.861.987 4.02.816 1.161 2.037 1.959 3.41 2.232h52.563c1.377-.269 2.602-1.066 3.422-2.226.821-1.161 1.178-2.601.996-4.026.183-1.426-.169-2.874-.983-4.056-.816-1.286-2.044-2.206-3.435-2.492zM570.763 49.048l-53.969 1.934c-1.405.329-2.635 1.181-3.439 2.382-.802 1.199-1.119 2.662-.886 4.087-.14 1.44.277 2.881 1.165 4.023s2.182 1.903 3.613 2.121l53.968-1.934c1.409-.323 2.642-1.173 3.445-2.375.802-1.203 1.115-2.668.871-4.093.136-1.438-.282-2.875-1.167-4.016-.886-1.142-2.174-1.903-3.601-2.129z"/></g><g  fill="#ffffff" ><path d="M580.85 13.088l53.712 2.555c1.425-.204 2.719-.946 3.615-2.073.896-1.127 1.327-2.556 1.204-3.99.253-1.415-.043-2.875-.827-4.081-.784-1.205-1.998-2.067-3.395-2.409L581.448.535c-1.423.21-2.714.954-3.61 2.079-.896 1.125-1.332 2.55-1.218 3.983-.258 1.418.036 2.881.822 4.088.787 1.207 2.007 2.068 3.408 2.403zM633.913 25.6h-51.817c-1.376.292-2.594 1.243-3.392 2.56-.8 1.178-1.147 2.619-.97 4.036-.178 1.414.17 2.841.975 3.991.804 1.151 2.007 1.943 3.359 2.213h51.845c1.356-.267 2.563-1.057 3.372-2.208.809-1.151 1.162-2.58.984-3.997.181-1.416-.164-2.857-.965-4.037-.803-1.317-2.015-2.27-3.391-2.558zM634.562 48.357l-53.712 2.555c-1.395.344-2.61 1.207-3.396 2.411-.784 1.204-1.083 2.664-.834 4.08-.123 1.436.309 2.865 1.206 3.992.898 1.127 2.195 1.869 3.622 2.07l53.711-2.555c1.399-.338 2.617-1.199 3.402-2.406.784-1.206 1.078-2.669.82-4.084.118-1.434-.315-2.859-1.21-3.985-.894-1.126-2.186-1.869-3.609-2.078z"/></g><g  fill="#ffffff" ><path d="M644.917 13.171l53.405 3.296c1.421-.183 2.719-.903 3.626-2.012s1.356-2.524 1.253-3.952c.272-1.405-.002-2.862-.765-4.072-.763-1.211-1.959-2.085-3.344-2.445L645.688.69c-1.418.189-2.713.912-3.621 2.019-.907 1.106-1.36 2.518-1.267 3.945-.277 1.407-.005 2.867.76 4.079.766 1.211 1.968 2.085 3.357 2.438zM697.484 25.6h-50.959c-1.359.295-2.56 1.285-3.341 2.639-.782 1.175-1.122 2.607-.947 4.013-.173 1.404.17 2.818.96 3.957.791 1.14 1.972 1.923 3.3 2.191h50.987c1.333-.264 2.518-1.047 3.313-2.186.795-1.14 1.142-2.556.97-3.962.179-1.406-.159-2.838-.944-4.015-.788-1.355-1.98-2.347-3.339-2.637zM698.322 47.533l-53.405 3.296c-1.384.362-2.58 1.237-3.344 2.446-.764 1.209-1.041 2.665-.773 4.071-.102 1.43.347 2.846 1.256 3.955s2.209 1.829 3.632 2.009l53.404-3.296c1.387-.356 2.587-1.23 3.35-2.441.764-1.212 1.036-2.671.759-4.076.098-1.428-.353-2.839-1.259-3.947-.906-1.108-2.201-1.83-3.62-2.017z"/></g><g  fill="#ffffff" ><path d="M708.996 13.269l53.043 4.17c1.415-.158 2.718-.852 3.638-1.94.92-1.087 1.391-2.487 1.312-3.909.294-1.392.046-2.845-.692-4.061-.739-1.216-1.913-2.105-3.284-2.486L709.971.873c-1.413.165-2.713.861-3.634 1.947-.919 1.085-1.394 2.481-1.325 3.902-.299 1.393-.053 2.85.688 4.067.74 1.217 1.921 2.106 3.296 2.48zM760.979 25.6h-49.95c-1.338.298-2.518 1.333-3.278 2.732-.763 1.171-1.093 2.593-.921 3.987-.167 1.392.17 2.79.943 3.916.774 1.126 1.93 1.901 3.23 2.165h49.976c1.304-.261 2.464-1.034 3.243-2.161.778-1.126 1.12-2.527.953-3.92.176-1.394-.153-2.816-.919-3.989-.77-1.399-1.94-2.437-3.277-2.73zM762.039 46.561l-53.043 4.17c-1.37.382-2.544 1.272-3.284 2.488-.739 1.214-.99 2.667-.7 4.059-.078 1.424.393 2.824 1.314 3.911.922 1.088 2.228 1.782 3.645 1.938l53.042-4.17c1.373-.377 2.551-1.265 3.29-2.483.739-1.217.985-2.672.686-4.064.073-1.421-.398-2.817-1.317-3.904-.919-1.087-2.219-1.782-3.633-1.945z"/></g><g  fill="#ffffff" ><path d="M773.087 13.384l52.622 5.188c1.41-.13 2.718-.794 3.653-1.857.936-1.062 1.43-2.443 1.38-3.857.32-1.378.102-2.826-.608-4.049-.709-1.223-1.859-2.13-3.213-2.535l-52.62-5.188c-1.407.136-2.712.803-3.648 1.864-.936 1.06-1.434 2.437-1.394 3.851-.324 1.378-.109 2.83.603 4.054.712 1.224 1.867 2.13 3.225 2.529zM824.391 25.6h-48.773c-1.314.302-2.471 1.39-3.207 2.84-.74 1.168-1.059 2.578-.89 3.957-.16 1.377.169 2.758.924 3.868.754 1.111 1.88 1.875 3.147 2.135h48.799c1.27-.258 2.401-1.02 3.16-2.131.76-1.111 1.094-2.493.934-3.872.173-1.379-.145-2.789-.889-3.959-.75-1.45-1.893-2.542-3.205-2.838zM825.709 45.428l-52.622 5.188c-1.352.407-2.502 1.315-3.213 2.537-.71 1.221-.93 2.669-.615 4.046-.049 1.416.445 2.799 1.383 3.861.937 1.062 2.248 1.727 3.659 1.854l52.62-5.188c1.357-.402 2.509-1.308 3.22-2.532.71-1.224.926-2.674.601-4.052.045-1.413-.451-2.79-1.385-3.852-.935-1.062-2.24-1.727-3.648-1.862z"/></g><g  fill="#ffffff" ><path d="M837.193 13.516l52.136 6.359c1.403-.097 2.717-.726 3.671-1.76.953-1.034 1.476-2.394 1.458-3.799.349-1.361.166-2.804-.511-4.035-.676-1.23-1.797-2.157-3.132-2.59l-52.134-6.359c-1.401.103-2.712.735-3.666 1.767-.953 1.031-1.48 2.388-1.472 3.792-.353 1.361-.173 2.807.506 4.039.678 1.232 1.804 2.158 3.144 2.586zM887.714 25.6h-47.419c-1.287.306-2.416 1.455-3.125 2.964-.713 1.164-1.02 2.56-.854 3.923-.152 1.36.169 2.721.901 3.813.733 1.093 1.824 1.844 3.052 2.1h47.445c1.232-.254 2.328-1.004 3.066-2.097.737-1.093 1.063-2.454.911-3.817.17-1.362-.137-2.758-.855-3.924-.726-1.509-1.838-2.662-3.122-2.962zM889.329 44.125l-52.136 6.359c-1.334.436-2.454 1.363-3.132 2.593-.677 1.229-.863 2.671-.518 4.032-.016 1.407.507 2.768 1.462 3.802.955 1.034 2.271 1.663 3.676 1.757l52.134-6.359c1.338-.43 2.462-1.356 3.139-2.587.677-1.232.858-2.677.504-4.038.012-1.404-.512-2.76-1.464-3.793-.952-1.033-2.263-1.665-3.665-1.766z"/></g><g  fill="#ffffff" ><path d="M901.313 13.665l51.586 7.687c1.395-.059 2.716-.65 3.69-1.651.973-1.001 1.528-2.338 1.547-3.733.382-1.342.238-2.779-.401-4.018-.639-1.239-1.726-2.188-3.04-2.654L903.111 1.61c-1.394.065-2.711.659-3.685 1.658-.973.999-1.531 2.331-1.56 3.725-.388 1.342-.247 2.782.394 4.023.641 1.24 1.734 2.19 3.053 2.649zM950.946 25.6h-45.884c-1.255.311-2.353 1.529-3.031 3.105-.684 1.159-.976 2.54-.815 3.884-.143 1.341.169 2.678.876 3.75.708 1.073 1.76 1.81 2.946 2.061h45.908c1.189-.249 2.247-.985 2.96-2.058.712-1.073 1.029-2.411.886-3.754.165-1.344-.128-2.724-.818-3.885-.698-1.576-1.776-2.799-3.028-3.103zM952.899 42.648l-51.586 7.687c-1.313.467-2.4 1.418-3.04 2.656-.64 1.238-.786 2.674-.407 4.016.02 1.397.575 2.734 1.55 3.735.975 1.001 2.298 1.592 3.695 1.648l51.584-7.686c1.317-.462 2.408-1.411 3.047-2.651.64-1.241.782-2.68.394-4.021-.025-1.394-.581-2.727-1.553-3.727s-2.29-1.593-3.684-1.657z"/></g><g  fill="#ffffff" ><path d="M965.446 13.832l50.975 9.163c1.386-.018 2.715-.565 3.711-1.53.995-.965 1.585-2.275 1.646-3.659.419-1.32.319-2.751-.278-3.999-.598-1.249-1.649-2.224-2.938-2.725l-50.973-9.163c-1.385.024-2.71.574-3.706 1.537-.995.962-1.589 2.269-1.659 3.651-.424 1.32-.327 2.754.272 4.004.599 1.25 1.655 2.225 2.95 2.721zM1014.093 25.6h-44.178c-1.22.317-2.283 1.612-2.927 3.262-.65 1.153-.926 2.517-.769 3.84-.134 1.32.168 2.632.847 3.681.679 1.05 1.689 1.772 2.826 2.017h44.201c1.14-.244 2.155-.964 2.84-2.015.685-1.05.992-2.362.858-3.684.161-1.323-.117-2.686-.775-3.841-.668-1.65-1.707-2.952-2.923-3.26zM1016.421 41.005l-50.975 9.163c-1.289.504-2.339 1.479-2.938 2.727-.597 1.248-.7 2.678-.284 3.998.062 1.386.652 2.696 1.649 3.661.997.965 2.328 1.512 3.716 1.527l50.973-9.163c1.293-.498 2.347-1.472 2.945-2.722.598-1.25.696-2.683.271-4.002-.066-1.382-.657-2.689-1.652-3.653-.994-.964-2.32-1.513-3.705-1.536z"/></g><g  fill="#ffffff" ><path d="M1029.59 14.012l50.31 10.769c1.378.028 2.714-.472 3.734-1.397 1.021-.925 1.649-2.207 1.755-3.579.459-1.297.406-2.72-.146-3.979-.551-1.26-1.563-2.262-2.826-2.802L1032.11 2.255c-1.376-.021-2.71.482-3.73 1.406-1.02.923-1.651 2.2-1.766 3.57-.465 1.297-.416 2.723.138 3.984.553 1.26 1.57 2.263 2.838 2.797zM1077.164 25.6h-42.321c-1.182.323-2.208 1.701-2.813 3.432-.614 1.148-.874 2.492-.722 3.793-.122 1.298.168 2.581.817 3.606.649 1.025 1.611 1.73 2.696 1.969h42.343c1.088-.238 2.057-.942 2.711-1.967.655-1.026.951-2.31.828-3.61.155-1.299-.105-2.643-.729-3.792-.635-1.732-1.632-3.118-2.81-3.431zM1079.9 39.219l-50.31 10.769c-1.262.542-2.273 1.545-2.826 2.803-.552 1.258-.606 2.681-.15 3.978.106 1.374.735 2.656 1.757 3.581 1.021.925 2.36 1.425 3.739 1.395l50.307-10.769c1.267-.537 2.281-1.539 2.834-2.799.552-1.261.602-2.686.138-3.982-.111-1.37-.741-2.648-1.76-3.572-1.018-.925-2.352-1.427-3.729-1.404z"/></g><g  fill="#ffffff" ><path d="M1093.744 14.204l49.605 12.471c1.367.076 2.713-.374 3.759-1.257 1.046-.884 1.715-2.135 1.868-3.494.502-1.273.5-2.688-.004-3.959-.504-1.27-1.473-2.301-2.709-2.883l-49.602-12.471c-1.366-.069-2.709.385-3.754 1.266-1.046.882-1.718 2.129-1.88 3.486-.508 1.271-.509 2.689-.004 3.961.505 1.272 1.479 2.304 2.721 2.88z"/><path d="M1140.18 25.6h-40.354c-1.141.33-2.127 1.796-2.693 3.613-.575 1.142-.816 2.466-.669 3.742-.111 1.274.167 2.527.783 3.526.617 1 1.53 1.686 2.559 1.919h40.374c1.033-.232 1.952-.918 2.574-1.918.623-.999.907-2.253.796-3.528.15-1.276-.094-2.599-.68-3.743-.6-1.817-1.554-3.292-2.69-3.611z"/><path d="M1143.349 37.325l-49.605 12.471c-1.235.583-2.204 1.615-2.708 2.885-.504 1.269-.508 2.684-.009 3.956.154 1.361.823 2.613 1.871 3.496 1.047.884 2.395 1.334 3.763 1.256l49.602-12.471c1.24-.578 2.212-1.609 2.717-2.881.504-1.272.503-2.69-.004-3.961-.158-1.357-.829-2.604-1.873-3.486-1.045-.883-2.387-1.335-3.754-1.265z"/></g><g  fill="#ffffff" ><path d="M1157.902 14.401l48.878 14.226c1.357.125 2.712-.273 3.785-1.113 1.072-.84 1.784-2.06 1.986-3.407.545-1.247.595-2.654.141-3.936-.454-1.282-1.38-2.343-2.588-2.967L1161.23 2.979c-1.357-.119-2.708.283-3.78 1.122-1.072.838-1.786 2.053-1.997 3.397-.552 1.246-.606 2.656-.151 3.94.456 1.283 1.387 2.345 2.6 2.963z"/><path d="M1203.166 25.6h-38.326c-1.1.336-2.045 1.894-2.569 3.799-.536 1.135-.758 2.439-.617 3.69-.099 1.25.167 2.472.75 3.444.583.973 1.445 1.641 2.417 1.867h38.345c.975-.226 1.843-.893 2.433-1.866.59-.973.862-2.196.762-3.446.144-1.251-.081-2.554-.63-3.69-.564-1.906-1.471-3.474-2.565-3.798z"/><path d="M1206.78 35.373l-48.878 14.226c-1.207.625-2.132 1.687-2.587 2.968-.454 1.281-.405 2.688.138 3.935.203 1.348.914 2.568 1.988 3.408 1.074.84 2.43 1.239 3.789 1.111l48.874-14.225c1.212-.621 2.141-1.682 2.596-2.965.455-1.283.402-2.693-.149-3.938-.208-1.344-.92-2.559-1.991-3.399-1.071-.839-2.423-1.24-3.78-1.121z"/></g><g  fill="#ffffff" ><path d="M1222.06 14.6l48.15 15.985c1.347.175 2.71-.171 3.81-.968 1.099-.797 1.853-1.985 2.104-3.319.59-1.221.692-2.621.287-3.914-.405-1.294-1.287-2.385-2.466-3.051L1225.8 3.347c-1.346-.168-2.707.182-3.806.978-1.098.795-1.854 1.979-2.114 3.309-.596 1.22-.702 2.622-.297 3.917.405 1.295 1.293 2.387 2.477 3.049z"/><path d="M1266.149 25.6h-36.292c-1.058.343-1.962 1.992-2.445 3.986-.496 1.129-.699 2.412-.563 3.638-.087 1.225.166 2.416.716 3.362.55.946 1.36 1.595 2.275 1.814h36.309c.917-.22 1.734-.868 2.291-1.815.556-.946.816-2.137.728-3.363.139-1.225-.068-2.507-.579-3.637-.527-1.995-1.389-3.655-2.44-3.985z"/><path d="M1270.21 33.415L1222.06 49.4c-1.177.668-2.059 1.76-2.464 3.053-.404 1.292-.303 2.692.284 3.913.252 1.335 1.006 2.523 2.106 3.32 1.101.797 2.466 1.144 3.814.967l48.145-15.986c1.183-.663 2.069-1.754 2.474-3.049.405-1.295.3-2.697-.295-3.916-.257-1.33-1.011-2.514-2.109-3.31-1.097-.797-2.458-1.146-3.805-.977z"/></g><g  fill="#ffffff" ><path d="M1286.216 14.794l47.435 17.709c1.337.224 2.71-.072 3.835-.826 1.125-.755 1.92-1.912 2.22-3.233.633-1.196.786-2.589.43-3.893-.356-1.305-1.195-2.425-2.346-3.133l-47.431-17.71c-1.337-.216-2.707.083-3.831.837-1.124.752-1.922 1.905-2.23 3.222-.639 1.194-.797 2.589-.44 3.895.356 1.307 1.201 2.428 2.358 3.132z"/><path d="M1329.152 25.6h-34.299c-1.017.35-1.88 2.088-2.323 4.169-.458 1.123-.642 2.385-.511 3.587-.076 1.2.165 2.361.682 3.281.518.92 1.277 1.55 2.136 1.763h34.315c.861-.214 1.628-.844 2.152-1.764.525-.92.772-2.081.696-3.282.133-1.201-.056-2.462-.53-3.586-.492-2.081-1.309-3.833-2.318-4.168z"/><path d="M1333.651 31.497l-47.435 17.709c-1.15.71-1.989 1.831-2.345 3.135-.356 1.304-.203 2.696.427 3.892.301 1.322 1.096 2.479 2.222 3.234 1.127.755 2.501 1.05 3.839.825l47.431-17.71c1.155-.704 1.998-1.825 2.354-3.131.357-1.306.2-2.701-.438-3.895-.305-1.317-1.101-2.47-2.224-3.224-1.124-.754-2.494-1.052-3.831-.835z"/></g><g  fill="#ffffff" ><path d="M1350.365 14.98l46.75 19.365c1.327.271 2.708.024 3.859-.69 1.15-.714 1.985-1.842 2.331-3.15.674-1.172.876-2.557.567-3.873-.309-1.315-1.108-2.464-2.232-3.212l-46.745-19.365c-1.327-.263-2.705-.012-3.855.701-1.149.712-1.986 1.835-2.34 3.139-.681 1.17-.888 2.557-.578 3.874.309 1.317 1.113 2.467 2.243 3.211z"/><path d="M1392.195 25.6h-32.385c-.978.356-1.802 2.18-2.206 4.345-.421 1.116-.588 2.36-.462 3.538-.064 1.177.165 2.309.651 3.203.486.895 1.197 1.507 2.002 1.714h32.4c.807-.208 1.526-.821 2.019-1.716.493-.894.729-2.026.665-3.203.127-1.178-.045-2.42-.483-3.537-.458-2.165-1.232-4.004-2.201-4.344z"/><path d="M1397.115 29.655l-46.75 19.365c-1.123.75-1.921 1.899-2.23 3.214-.309 1.315-.107 2.699.565 3.871.347 1.309 1.182 2.437 2.333 3.151 1.151.714 2.534.961 3.862.689l46.745-19.365c1.129-.745 1.931-1.894 2.24-3.211.31-1.317.104-2.704-.575-3.874-.352-1.304-1.187-2.427-2.336-3.14-1.148-.714-2.527-.964-3.854-.7z"/></g><g  fill="#ffffff" ><path d="M1414.506 15.156l46.101 20.932c1.318.315 2.707.114 3.882-.561 1.174-.676 2.046-1.775 2.436-3.072.713-1.149.962-2.527.697-3.853s-1.025-2.501-2.124-3.287l-46.095-20.932c-1.318-.307-2.705-.102-3.878.572-1.173.674-2.047 1.769-2.445 3.061-.72 1.147-.974 2.527-.709 3.854.266 1.328 1.03 2.505 2.135 3.286z"/><path d="M1455.289 25.6h-30.574c-.941.362-1.728 2.268-2.096 4.511-.384 1.111-.534 2.336-.413 3.492-.054 1.155.164 2.259.62 3.129.457.871 1.122 1.467 1.876 1.668h30.587c.756-.202 1.429-.799 1.893-1.67.464-.87.689-1.975.635-3.129.122-1.155-.034-2.379-.438-3.491-.426-2.244-1.159-4.165-2.09-4.51z"/><path d="M1460.607 27.912l-46.101 20.932c-1.097.787-1.856 1.963-2.121 3.289-.265 1.324-.016 2.702.695 3.851.391 1.297 1.263 2.398 2.438 3.073 1.175.675 2.566.876 3.885.56l46.095-20.932c1.104-.783 1.867-1.959 2.132-3.286.266-1.327.014-2.707-.705-3.854-.395-1.293-1.268-2.387-2.441-3.062-1.172-.675-2.558-.879-3.877-.571z"/></g><g  fill="#ffffff" ><path d="M1478.638 15.322l45.494 22.399c1.309.356 2.706.199 3.902-.441 1.197-.639 2.104-1.712 2.535-2.998.75-1.128 1.042-2.5.819-3.835-.224-1.335-.947-2.536-2.022-3.357l-45.488-22.4c-1.309-.348-2.704-.186-3.899.452-1.195.638-2.104 1.706-2.543 2.987-.756 1.125-1.054 2.499-.831 3.836.224 1.337.952 2.539 2.033 3.357z"/><path d="M1518.441 25.6h-28.878c-.906.368-1.659 2.35-1.992 4.667-.352 1.105-.486 2.313-.369 3.448-.044 1.134.164 2.213.592 3.061.428.848 1.051 1.429 1.757 1.624h28.89c.707-.197 1.338-.778 1.774-1.627.437-.848.652-1.926.607-3.06.118-1.134-.023-2.341-.395-3.447-.396-2.318-1.091-4.317-1.986-4.666z"/><path d="M1524.132 26.279l-45.494 22.399c-1.073.823-1.796 2.025-2.019 3.36-.223 1.334.069 2.705.817 3.833.432 1.286 1.34 2.36 2.537 2.999 1.197.64 2.595.797 3.905.44l45.488-22.4c1.08-.818 1.807-2.019 2.03-3.356.224-1.337-.072-2.71-.827-3.836-.436-1.281-1.344-2.35-2.539-2.988-1.194-.639-2.588-.8-3.898-.451z"/></g><g  fill="#ffffff" ><path d="M1542.761 15.475l44.928 23.765c1.302.395 2.706.277 3.923-.329 1.217-.605 2.157-1.654 2.626-2.93.784-1.108 1.117-2.474.932-3.818-.185-1.344-.875-2.568-1.928-3.422l-44.921-23.765c-1.302-.386-2.703-.265-3.919.34-1.216.604-2.158 1.648-2.634 2.919-.791 1.105-1.13 2.472-.945 3.818.185 1.346.879 2.572 1.938 3.422z"/><path d="M1581.652 25.6h-27.3c-.874.373-1.595 2.426-1.896 4.811-.321 1.101-.44 2.293-.328 3.409-.034 1.115.164 2.169.566 2.996.403.828.985 1.394 1.647 1.584h27.311c.662-.193 1.254-.759 1.664-1.587.411-.827.617-1.881.581-2.996.114-1.114-.013-2.305-.356-3.406-.367-2.386-1.027-4.457-1.889-4.811z"/><path d="M1587.689 24.76l-44.928 23.765c-1.051.856-1.74 2.08-1.924 3.424-.185 1.343.148 2.709.931 3.816.469 1.276 1.41 2.326 2.628 2.932 1.217.605 2.623.723 3.925.327l44.921-23.765c1.058-.851 1.752-2.076 1.937-3.422.185-1.345-.151-2.712-.941-3.818-.474-1.271-1.415-2.315-2.63-2.92-1.215-.605-2.616-.726-3.919-.339z"/></g><g  fill="#ffffff" ><path d="M1606.875 15.618l44.405 25.029c1.293.43 2.704.35 3.94-.225 1.236-.574 2.207-1.601 2.712-2.866.815-1.091 1.185-2.451 1.036-3.803-.149-1.352-.808-2.598-1.84-3.483L1612.73 5.241c-1.294-.422-2.702-.338-3.937.236-1.234.573-2.206 1.595-2.718 2.855-.823 1.087-1.199 2.448-1.051 3.802.149 1.355.812 2.602 1.851 3.484z"/><path d="M1644.921 25.6h-25.838c-.844.378-1.536 2.496-1.807 4.946-.292 1.096-.398 2.273-.29 3.371-.026 1.097.163 2.129.542 2.937.379.808.924 1.361 1.544 1.546h25.849c.621-.188 1.175-.741 1.562-1.55.387-.808.584-1.84.558-2.936.109-1.097-.005-2.272-.32-3.369-.342-2.45-.969-4.587-1.8-4.945z"/><path d="M1651.28 23.353l-44.405 25.029c-1.031.887-1.688 2.133-1.837 3.485-.148 1.352.222 2.711 1.037 3.801.505 1.266 1.475 2.293 2.712 2.868 1.237.574 2.649.655 3.943.223l44.398-25.029c1.038-.882 1.7-2.129 1.849-3.483.15-1.354-.224-2.715-1.045-3.803-.51-1.26-1.481-2.281-2.715-2.856-1.235-.574-2.642-.658-3.937-.235z"/></g><g  fill="#ffffff" ><path d="M1670.981 15.749l43.92 26.198c1.287.463 2.704.418 3.957-.128 1.254-.546 2.253-1.552 2.79-2.809.845-1.073 1.25-2.428 1.133-3.788-.116-1.36-.745-2.625-1.758-3.538l-43.914-26.198c-1.288-.455-2.702-.405-3.954.14-1.252.545-2.252 1.545-2.797 2.796-.852 1.07-1.263 2.426-1.147 3.788.115 1.362.749 2.63 1.77 3.539z"/><path d="M1708.245 25.6h-24.487c-.816.382-1.48 2.561-1.724 5.07-.266 1.092-.36 2.255-.255 3.336-.018 1.081.163 2.093.52 2.883.356.79.868 1.33 1.45 1.511h24.496c.583-.184 1.104-.725 1.469-1.515.365-.791.554-1.802.535-2.882.105-1.08.004-2.241-.287-3.334-.317-2.509-.914-4.708-1.717-5.069z"/><path d="M1714.901 22.053l-43.92 26.198c-1.013.914-1.641 2.181-1.756 3.54-.116 1.36.289 2.714 1.133 3.787.538 1.257 1.537 2.263 2.791 2.809 1.255.546 2.672.592 3.96.127l43.914-26.198c1.018-.91 1.651-2.176 1.768-3.538.116-1.362-.292-2.718-1.143-3.788-.542-1.252-1.541-2.252-2.793-2.797-1.252-.546-2.666-.596-3.954-.14z"/></g><g  fill="#ffffff" ><path d="M1735.078 15.871l43.473 27.276c1.281.494 2.703.48 3.974-.04 1.27-.519 2.295-1.505 2.862-2.754.871-1.058 1.308-2.408 1.222-3.775-.086-1.367-.688-2.651-1.684-3.59l-43.466-27.276c-1.282-.486-2.702-.467-3.97.051-1.269.518-2.294 1.499-2.869 2.743-.879 1.053-1.322 2.404-1.237 3.773.085 1.37.692 2.656 1.695 3.592z"/><path d="M1771.621 25.6h-23.239c-.792.386-1.43 2.622-1.649 5.184-.241 1.088-.323 2.239-.222 3.305-.01 1.065.163 2.058.499 2.832.336.774.816 1.302 1.363 1.479h23.248c.548-.18 1.037-.71 1.382-1.484s.527-1.766.515-2.83c.102-1.065.011-2.214-.256-3.302-.295-2.563-.863-4.819-1.641-5.184z"/><path d="M1778.551 20.853l-43.473 27.276c-.995.941-1.596 2.226-1.681 3.593-.085 1.366.352 2.715 1.223 3.772.568 1.25 1.592 2.236 2.863 2.756 1.271.519 2.694.533 3.976.038l43.466-27.276c1.002-.936 1.608-2.221 1.694-3.59.086-1.369-.355-2.72-1.232-3.775-.573-1.243-1.598-2.224-2.866-2.743-1.268-.519-2.687-.537-3.97-.051z"/></g><g  fill="#ffffff" ><path d="M1799.168 15.983l43.061 28.271c1.275.522 2.702.538 3.987.043 1.286-.495 2.334-1.464 2.93-2.705.896-1.044 1.362-2.389 1.304-3.763-.057-1.373-.635-2.674-1.615-3.637L1805.781 5.92c-1.276-.514-2.701-.524-3.984-.03-1.284.494-2.333 1.457-2.935 2.693-.905 1.038-1.378 2.385-1.321 3.761.057 1.375.64 2.679 1.627 3.639z"/><path d="M1835.046 25.6h-22.089c-.768.39-1.383 2.677-1.578 5.29-.22 1.084-.291 2.223-.192 3.275-.004 1.051.162 2.027.479 2.785.317.759.768 1.277 1.283 1.45h22.097c.515-.177.976-.696 1.302-1.455.326-.758.501-1.733.495-2.783.099-1.051.019-2.188-.227-3.273-.274-2.613-.817-4.921-1.57-5.289z"/><path d="M1842.229 19.746l-43.061 28.271c-.979.965-1.556 2.267-1.613 3.64-.056 1.373.411 2.718 1.307 3.76.595 1.243 1.644 2.211 2.93 2.706 1.286.495 2.714.48 3.989-.043l43.054-28.272c.986-.96 1.567-2.262 1.625-3.638.058-1.375-.412-2.722-1.314-3.762-.601-1.236-1.65-2.199-2.933-2.693-1.283-.494-2.708-.483-3.984.031z"/></g><g  fill="#ffffff" ><path d="M1863.25 16.086l42.681 29.19c1.27.548 2.702.59 4.001.118 1.3-.473 2.37-1.424 2.991-2.659.919-1.03 1.413-2.372 1.381-3.751-.032-1.38-.587-2.696-1.552-3.682l-42.673-29.19c-1.271-.539-2.701-.577-3.998-.105-1.297.471-2.369 1.418-2.996 2.646-.928 1.026-1.428 2.368-1.397 3.75.031 1.382.59 2.701 1.562 3.683z"/><path d="M1898.515 25.6h-21.028c-.746.394-1.339 2.728-1.513 5.387-.198 1.082-.26 2.209-.164 3.248.002 1.039.162 1.998.462 2.743.299.744.724 1.253 1.208 1.422h21.035c.486-.173.919-.683 1.228-1.428.309-.744.477-1.703.478-2.74.096-1.037.026-2.163-.2-3.245-.256-2.66-.775-5.017-1.506-5.387z"/><path d="M1905.931 18.724l-42.681 29.19c-.963.987-1.517 2.304-1.548 3.684-.031 1.379.463 2.72 1.383 3.749.621 1.235 1.691 2.187 2.991 2.659 1.3.473 2.733.43 4.003-.118l42.673-29.19c.971-.983 1.53-2.301 1.562-3.682.032-1.381-.466-2.724-1.391-3.751-.626-1.229-1.697-2.175-2.994-2.647-1.297-.472-2.726-.434-3.998.106z"/></g><g  fill="#ffffff" ><path d="M1927.327 16.181l42.33 30.038c1.264.572 2.701.639 4.013.187 1.312-.451 2.403-1.388 3.047-2.616.941-1.018 1.46-2.356 1.452-3.741-.008-1.385-.542-2.716-1.493-3.722L1934.353 6.29c-1.266-.563-2.7-.626-4.01-.175-1.31.45-2.401 1.382-3.053 2.604-.948 1.012-1.474 2.351-1.467 3.739.007 1.387.545 2.721 1.504 3.723z"/><path d="M1962.025 25.6h-20.048c-.726.397-1.3 2.775-1.453 5.477-.18 1.078-.232 2.196-.139 3.223.008 1.027.162 1.971.445 2.703.284.732.684 1.231 1.14 1.397h20.055c.458-.171.867-.671 1.16-1.403.293-.732.455-1.675.462-2.7.093-1.025.031-2.142-.176-3.22-.239-2.702-.735-5.104-1.446-5.477z"/><path d="M1969.657 17.781l-42.33 30.038c-.95 1.007-1.483 2.339-1.49 3.724-.007 1.384.513 2.721 1.453 3.738.645 1.229 1.736 2.166 3.049 2.617 1.312.452 2.749.385 4.014-.188l42.323-30.037c.957-1.004 1.495-2.336 1.503-3.723.007-1.387-.515-2.725-1.462-3.74-.65-1.222-1.741-2.153-3.05-2.604-1.31-.451-2.744-.389-4.01.175z"/></g><g  fill="#ffffff" ><path d="M1991.397 16.27l42.006 30.82c1.26.594 2.701.684 4.025.252 1.324-.433 2.433-1.355 3.1-2.578.96-1.007 1.502-2.341 1.516-3.731.014-1.39-.501-2.734-1.439-3.759l-41.998-30.82c-1.262-.586-2.7-.671-4.022-.239-1.322.431-2.432 1.348-3.105 2.564-.968 1.001-1.517 2.336-1.532 3.729-.016 1.393.503 2.74 1.449 3.762z"/><path d="M2025.573 25.6h-19.144c-.707.4-1.262 2.819-1.398 5.56-.162 1.076-.206 2.184-.115 3.2.014 1.015.162 1.946.43 2.666.269.72.646 1.211 1.077 1.374h19.15c.432-.168.818-.66 1.096-1.38.278-.72.436-1.649.448-2.663.09-1.014.037-2.121-.154-3.197-.223-2.742-.699-5.185-1.39-5.56z"/><path d="M2033.403 16.91l-42.006 30.82c-.937 1.027-1.451 2.372-1.435 3.762.015 1.39.558 2.723 1.518 3.729.667 1.223 1.777 2.146 3.101 2.578 1.324.432 2.766.342 4.026-.253l41.998-30.82c.944-1.022 1.463-2.368 1.449-3.76-.014-1.392-.561-2.727-1.526-3.73-.672-1.216-1.782-2.133-3.104-2.565-1.321-.432-2.759-.346-4.021.239z"/></g><g  fill="#ffffff" ><path d="M2055.462 16.351l41.707 31.543c1.256.614 2.7.726 4.035.311 1.335-.414 2.462-1.324 3.148-2.541.978-.996 1.542-2.327 1.576-3.722.035-1.395-.462-2.752-1.389-3.794l-41.698-31.543c-1.257-.606-2.699-.712-4.032-.298-1.333.413-2.46 1.317-3.153 2.528-.987.991-1.557 2.322-1.593 3.72-.036 1.397.465 2.756 1.399 3.796z"/><path d="M2089.155 25.6h-18.308c-.69.403-1.229 2.859-1.347 5.637-.146 1.073-.182 2.173-.093 3.179.018 1.005.161 1.923.416 2.631.255.709.611 1.192 1.018 1.353h18.314c.408-.165.774-.65 1.038-1.359.265-.709.417-1.625.434-2.629.088-1.004.042-2.102-.133-3.175-.208-2.778-.665-5.259-1.339-5.637z"/><path d="M2097.169 16.106l-41.707 31.543c-.925 1.044-1.421 2.401-1.385 3.796.036 1.395.6 2.725 1.579 3.72.686 1.217 1.814 2.127 3.149 2.542 1.335.414 2.78.303 4.036-.312l41.698-31.543c.933-1.04 1.434-2.398 1.399-3.795-.034-1.396-.602-2.728-1.586-3.721-.692-1.21-1.819-2.115-3.151-2.529-1.333-.414-2.774-.307-4.032.299z"/></g><g  fill="#ffffff" ><path d="M2119.523 16.426l41.429 32.211c1.252.633 2.7.764 4.045.366 1.345-.398 2.488-1.296 3.194-2.508.994-.986 1.577-2.314 1.631-3.713.053-1.4-.427-2.768-1.343-3.826l-41.421-32.211c-1.254-.625-2.699-.751-4.042-.353-1.343.397-2.486 1.289-3.198 2.495-1.004.98-1.594 2.309-1.649 3.711-.055 1.401.43 2.772 1.354 3.828z"/><path d="M2152.769 25.6h-17.536c-.674.405-1.197 2.897-1.3 5.708-.13 1.07-.159 2.163-.073 3.159.023.995.161 1.902.404 2.6.242.699.578 1.175.964 1.333h17.541c.386-.163.732-.64.984-1.339s.4-1.604.421-2.598c.086-.994.047-2.085-.114-3.155-.194-2.812-.633-5.328-1.291-5.708z"/><path d="M2160.952 15.363l-41.429 32.211c-.915 1.06-1.394 2.429-1.34 3.828.055 1.399.64 2.726 1.635 3.711.705 1.213 1.848 2.111 3.194 2.509 1.345.398 2.793.267 4.046-.367l41.421-32.211c.922-1.056 1.407-2.425 1.353-3.827-.054-1.401-.641-2.73-1.641-3.712-.711-1.206-1.854-2.098-3.197-2.496-1.343-.397-2.788-.271-4.042.354z"/></g><g  fill="#ffffff" ><path d="M2183.578 16.496l41.174 32.828c1.249.651 2.7.8 4.054.417 1.354-.383 2.512-1.27 3.235-2.477 1.01-.978 1.611-2.303 1.682-3.706.071-1.403-.394-2.782-1.3-3.856l-41.165-32.828c-1.251-.642-2.699-.786-4.051-.404-1.352.382-2.51 1.264-3.239 2.464-1.019.972-1.628 2.298-1.7 3.704-.073 1.405.397 2.787 1.31 3.858z"/><path d="M2216.412 25.6h-16.822c-.66.407-1.168 2.931-1.257 5.774-.116 1.068-.139 2.153-.054 3.14.027.987.161 1.882.392 2.572.23.689.548 1.158.914 1.314h16.827c.366-.161.694-.632.935-1.321.24-.689.383-1.583.409-2.569.084-.985.051-2.068-.096-3.137-.182-2.842-.605-5.391-1.248-5.773z"/><path d="M2224.752 14.676l-41.174 32.828c-.905 1.075-1.368 2.455-1.296 3.858.072 1.403.675 2.727 1.686 3.704.722 1.208 1.88 2.094 3.235 2.477s2.806.234 4.055-.417l41.165-32.828c.913-1.071 1.382-2.452 1.311-3.857-.071-1.405-.677-2.731-1.693-3.705-.728-1.2-1.886-2.082-3.238-2.464-1.352-.382-2.8-.238-4.051.404z"/></g><g  fill="#ffffff" ><path d="M2247.63 16.56l40.937 33.399c1.245.667 2.699.833 4.062.464 1.363-.369 2.535-1.246 3.274-2.449 1.024-.969 1.642-2.292 1.729-3.699.087-1.407-.364-2.795-1.26-3.882l-40.929-33.399c-1.248-.658-2.699-.819-4.06-.451-1.36.368-2.532 1.239-3.277 2.435-1.033.963-1.659 2.287-1.747 3.696-.089 1.41.366 2.801 1.271 3.886z"/><path d="M2280.082 25.6h-16.163c-.646.41-1.141 2.963-1.216 5.834-.103 1.066-.12 2.144-.037 3.124.031.979.161 1.864.381 2.544.22.681.521 1.144.868 1.298h16.167c.348-.159.659-.624.889-1.304.23-.681.369-1.565.398-2.542.083-.978.055-2.054-.08-3.12-.169-2.872-.578-5.451-1.207-5.834z"/><path d="M2288.567 14.041L2247.63 47.44c-.896 1.089-1.345 2.478-1.257 3.885.088 1.407.708 2.729 1.733 3.697.739 1.203 1.91 2.08 3.274 2.449 1.363.369 2.817.203 4.063-.465l40.929-33.399c.903-1.084 1.358-2.474 1.271-3.883-.088-1.409-.71-2.733-1.74-3.698-.745-1.196-1.916-2.067-3.277-2.436-1.36-.368-2.811-.207-4.059.451z"/></g><g  fill="#ffffff" ><path d="M2311.677 16.619l40.72 33.926c1.241.682 2.698.864 4.069.508s2.555-1.223 3.309-2.423c1.037-.961 1.671-2.281 1.773-3.692.102-1.41-.336-2.808-1.224-3.908l-40.711-33.926c-1.244-.673-2.698-.849-4.066-.494-1.369.355-2.553 1.217-3.313 2.409-1.046.955-1.688 2.276-1.791 3.689-.104 1.413.338 2.814 1.234 3.911z"/><path d="M2343.777 25.6h-15.553c-.634.412-1.116 2.992-1.179 5.89-.092 1.064-.102 2.136-.021 3.108.035.972.161 1.848.371 2.52.21.673.495 1.13.825 1.282h15.557c.331-.157.627-.616.846-1.289.22-.672.356-1.547.389-2.517.081-.97.059-2.04-.065-3.104-.159-2.898-.554-5.505-1.17-5.89z"/><path d="M2352.397 13.455l-40.72 33.926c-.887 1.101-1.323 2.499-1.22 3.91.103 1.41.739 2.73 1.777 3.69.753 1.199 1.938 2.067 3.309 2.423 1.371.356 2.828.174 4.07-.508l40.711-33.926c.895-1.098 1.337-2.497 1.234-3.909-.102-1.413-.74-2.734-1.783-3.691-.759-1.193-1.943-2.054-3.312-2.41-1.368-.355-2.822-.178-4.066.495z"/></g><g  fill="#ffffff" ><path d="M2375.721 16.674l40.518 34.414c1.239.695 2.698.891 4.076.547 1.379-.344 2.575-1.202 3.342-2.398 1.049-.954 1.698-2.273 1.813-3.686.116-1.414-.31-2.82-1.19-3.931l-40.509-34.414c-1.241-.686-2.697-.877-4.074-.534-1.376.344-2.572 1.196-3.345 2.385-1.058.948-1.714 2.267-1.832 3.683-.117 1.416.313 2.825 1.201 3.934z"/><path d="M2407.495 25.6h-14.989c-.622.414-1.094 3.019-1.145 5.942-.081 1.062-.086 2.128-.006 3.093.038.965.16 1.833.361 2.498.201.665.472 1.117.786 1.267h14.993c.315-.155.597-.61.808-1.275.21-.665.343-1.531.379-2.494.079-.963.062-2.027-.051-3.089-.149-2.923-.531-5.555-1.136-5.942z"/><path d="M2416.239 12.912l-40.518 34.414c-.879 1.113-1.303 2.519-1.186 3.933.117 1.414.767 2.731 1.817 3.684.767 1.196 1.963 2.055 3.342 2.399 1.379.344 2.838.148 4.077-.548l40.509-34.414c.887-1.109 1.317-2.516 1.201-3.932-.116-1.415-.769-2.734-1.824-3.685-.773-1.189-1.969-2.041-3.345-2.385-1.375-.343-2.832-.152-4.073.534z"/></g><g  fill="#ffffff" ><path d="M2439.762 16.725l40.331 34.863c1.236.708 2.698.918 4.083.585 1.385-.333 2.592-1.184 3.371-2.376 1.061-.948 1.723-2.264 1.852-3.681.128-1.416-.287-2.83-1.16-3.952L2447.917 7.3c-1.239-.699-2.697-.903-4.08-.57-1.383.332-2.59 1.176-3.375 2.362-1.07.941-1.74 2.258-1.87 3.677-.13 1.419.289 2.836 1.17 3.956z"/><path d="M2471.235 25.6h-14.469c-.612.415-1.072 3.044-1.113 5.99-.071 1.06-.071 2.121.007 3.08.041.958.161 1.818.353 2.476.192.658.45 1.106.75 1.254h14.472c.3-.154.569-.603.771-1.261.202-.659.332-1.517.371-2.473.078-.957.065-2.016-.038-3.077-.139-2.945-.51-5.601-1.104-5.989z"/><path d="M2480.093 12.412l-40.331 34.863c-.872 1.124-1.285 2.538-1.156 3.955.13 1.416.794 2.732 1.856 3.678.779 1.193 1.986 2.044 3.371 2.376 1.386.333 2.848.124 4.084-.584l40.322-34.864c.88-1.12 1.299-2.535 1.17-3.954-.129-1.418-.795-2.735-1.862-3.679-.785-1.185-1.991-2.03-3.374-2.362-1.382-.333-2.841-.129-4.08.571z"/></g><g  fill="#ffffff" ><path d="M2503.799 16.771l40.159 35.279c1.234.72 2.698.942 4.089.619 1.392-.323 2.609-1.166 3.4-2.355 1.071-.942 1.745-2.256 1.885-3.675.14-1.42-.264-2.84-1.13-3.973l-40.15-35.279c-1.237-.71-2.698-.927-4.087-.604-1.389.322-2.605 1.159-3.403 2.341-1.08.935-1.762 2.25-1.904 3.672-.142 1.422.267 2.845 1.141 3.975z"/><path d="M2534.995 25.6h-13.989c-.602.417-1.053 3.068-1.084 6.034-.061 1.059-.057 2.115.02 3.068.044.952.16 1.804.345 2.456.184.652.43 1.096.716 1.242h13.992c.286-.152.543-.597.738-1.249.194-.652.321-1.503.363-2.453.076-.951.068-2.005-.027-3.065-.13-2.966-.49-5.644-1.074-6.033z"/><path d="M2543.958 11.95l-40.159 35.279c-.865 1.133-1.268 2.555-1.126 3.974.141 1.419.817 2.733 1.889 3.673.791 1.19 2.008 2.033 3.4 2.356 1.392.322 2.856.101 4.09-.619l40.15-35.279c.873-1.13 1.281-2.553 1.141-3.974-.14-1.421-.819-2.736-1.896-3.674-.797-1.182-2.013-2.019-3.402-2.341-1.389-.322-2.85-.106-4.087.605z"/></g><g  fill="#ffffff" ><path d="M2567.834 16.815l40 35.661c1.232.731 2.698.964 4.095.65 1.397-.313 2.623-1.149 3.425-2.335 1.081-.937 1.766-2.249 1.917-3.671.151-1.422-.244-2.849-1.104-3.991l-39.991-35.662c-1.234-.721-2.697-.948-4.092-.636-1.395.313-2.621 1.143-3.429 2.322-1.09.93-1.783 2.243-1.936 3.667-.153 1.425.246 2.855 1.115 3.995z"/><path d="M2598.774 25.6h-13.547c-.593.418-1.035 3.089-1.057 6.074-.052 1.058-.044 2.11.032 3.057.046.947.16 1.793.337 2.439.177.646.412 1.085.686 1.23h13.549c.274-.151.519-.592.707-1.238.187-.646.311-1.49.355-2.435.075-.945.071-1.995-.015-3.053-.123-2.985-.473-5.684-1.047-6.074z"/><path d="M2607.834 11.524l-40 35.661c-.859 1.144-1.253 2.571-1.1 3.993.152 1.422.839 2.734 1.921 3.669.802 1.186 2.028 2.023 3.426 2.336 1.397.313 2.863.08 4.095-.65l39.991-35.662c.867-1.14 1.266-2.568 1.115-3.992-.151-1.424-.841-2.737-1.928-3.67-.808-1.179-2.033-2.009-3.428-2.322-1.395-.312-2.857-.085-4.092.637z"/></g><g  fill="#ffffff" ><path d="M2631.865 16.854l39.855 36.014c1.23.741 2.697.984 4.1.68 1.402-.305 2.637-1.135 3.448-2.319 1.09-.931 1.786-2.242 1.947-3.666.161-1.424-.225-2.857-1.08-4.008L2640.29 7.541c-1.232-.731-2.697-.969-4.097-.665-1.4.304-2.634 1.128-3.452 2.304-1.099.925-1.803 2.236-1.966 3.663-.162 1.427.228 2.863 1.09 4.011z"/><path d="M2662.57 25.6h-13.139c-.585.42-1.018 3.109-1.032 6.112-.045 1.056-.033 2.104.042 3.046.049.942.16 1.782.33 2.422.171.641.396 1.076.658 1.22h13.141c.262-.15.498-.587.678-1.228.181-.64.302-1.478.349-2.418.074-.94.074-1.986-.005-3.042-.116-3.004-.456-5.72-1.022-6.112z"/><path d="M2671.72 11.132l-39.855 36.014c-.853 1.151-1.237 2.585-1.075 4.009.162 1.424.86 2.735 1.951 3.665.811 1.184 2.046 2.013 3.449 2.318 1.403.305 2.87.062 4.1-.679l39.845-36.014c.861-1.148 1.252-2.583 1.091-4.009-.162-1.426-.862-2.738-1.958-3.665-.817-1.177-2.051-2.001-3.451-2.305-1.4-.304-2.865-.066-4.097.666z"/></g><g  fill="#ffffff" ><path d="M2695.894 16.891l39.721 36.338c1.228.75 2.697 1.002 4.104.706 1.408-.297 2.65-1.121 3.471-2.302 1.098-.927 1.803-2.236 1.973-3.663.17-1.426-.208-2.864-1.057-4.023l-39.711-36.338c-1.23-.74-2.697-.988-4.102-.692-1.405.296-2.647 1.114-3.473 2.288-1.107.92-1.821 2.23-1.993 3.659-.172 1.429.21 2.871 1.067 4.027z"/><path d="M2726.383 25.6h-12.765c-.577.421-1.003 3.127-1.009 6.146-.037 1.055-.022 2.099.052 3.037.051.937.16 1.771.324 2.407.164.635.38 1.068.631 1.21h12.767c.251-.148.477-.582.652-1.218.174-.636.294-1.468.343-2.403.073-.936.076-1.978.004-3.033-.109-3.02-.441-5.753-.999-6.146z"/><path d="M2735.615 10.771l-39.721 36.338c-.847 1.16-1.224 2.599-1.052 4.025.171 1.426.879 2.735 1.978 3.661.82 1.181 2.062 2.005 3.47 2.302 1.408.296 2.877.044 4.105-.706l39.711-36.338c.856-1.156 1.238-2.597 1.068-4.025-.17-1.428-.88-2.738-1.984-3.661-.827-1.174-2.068-1.992-3.473-2.288-1.405-.296-2.872-.049-4.102.692z"/></g><g  fill="#ffffff" ><path d="M2759.921 16.924l39.598 36.636c1.226.758 2.696 1.019 4.108.73 1.413-.289 2.662-1.108 3.491-2.287 1.105-.922 1.819-2.231 1.998-3.659.178-1.428-.193-2.872-1.037-4.037l-39.588-36.636c-1.228-.749-2.696-1.004-4.106-.716-1.409.289-2.658 1.102-3.493 2.273-1.115.916-1.837 2.224-2.017 3.655-.181 1.431.194 2.878 1.046 4.041z"/><path d="M2790.211 25.6h-12.421c-.57.422-.989 3.143-.988 6.178-.031 1.054-.012 2.094.061 3.028.053.933.16 1.761.318 2.393.159.631.366 1.06.607 1.201h12.423c.242-.147.459-.578.628-1.21.169-.631.286-1.457.337-2.389.072-.931.078-1.969.013-3.023-.103-3.035-.427-5.784-.978-6.178z"/><path d="M2799.519 10.44l-39.598 36.636c-.843 1.166-1.212 2.611-1.032 4.039.18 1.428.896 2.736 2.003 3.657.829 1.179 2.078 1.998 3.49 2.287 1.412.289 2.883.028 4.109-.73l39.588-36.636c.851-1.163 1.226-2.609 1.047-4.039-.178-1.43-.897-2.739-2.008-3.657-.835-1.172-2.084-1.984-3.493-2.273-1.41-.289-2.878-.033-4.106.716z"/></g><g  fill="#ffffff" ><path d="M2823.946 16.955l39.484 36.908c1.225.766 2.697 1.035 4.113.752 1.416-.282 2.672-1.096 3.509-2.273 1.112-.918 1.834-2.226 2.02-3.655.186-1.43-.178-2.879-1.017-4.051L2832.58 7.728c-1.228-.756-2.697-1.02-4.111-.738-1.413.282-2.669 1.09-3.511 2.259-1.122.912-1.852 2.219-2.04 3.652-.188 1.432.18 2.884 1.028 4.054z"/><path d="M2854.053 25.6h-12.106c-.563.423-.976 3.158-.969 6.207-.024 1.053-.002 2.09.07 3.019.054.93.159 1.754.313 2.381.153.627.352 1.053.585 1.193h12.107c.233-.146.443-.574.607-1.202.164-.627.279-1.448.332-2.376.071-.927.08-1.962.02-3.016-.097-3.048-.414-5.812-.959-6.206z"/><path d="M2863.43 10.137l-39.484 36.908c-.839 1.173-1.201 2.623-1.014 4.052.188 1.43.913 2.737 2.026 3.654.836 1.177 2.092 1.991 3.509 2.273 1.416.283 2.888.014 4.113-.752l39.475-36.908c.846-1.17 1.214-2.62 1.028-4.052-.186-1.432-.913-2.74-2.031-3.654-.843-1.169-2.098-1.977-3.511-2.259-1.414-.282-2.883-.018-4.111.738z"/></g><g  fill="#ffffff" ><path d="M2887.968 16.983l39.382 37.156c1.223.773 2.696 1.05 4.116.773 1.42-.276 2.682-1.086 3.526-2.261 1.118-.915 1.848-2.221 2.041-3.652.193-1.432-.165-2.884-1.001-4.062L2896.66 7.78c-1.226-.763-2.696-1.034-4.114-.758-1.417.276-2.678 1.079-3.528 2.247-1.127.907-1.865 2.213-2.06 3.648-.196 1.434.166 2.89 1.01 4.066z"/><path d="M2917.91 25.6h-11.819c-.558.424-.965 3.172-.951 6.233-.019 1.052.005 2.086.076 3.012.056.926.16 1.746.309 2.369.148.623.34 1.047.564 1.186h11.821c.225-.146.427-.571.586-1.194.159-.624.273-1.441.327-2.365.071-.924.082-1.956.028-3.008-.092-3.061-.403-5.838-.941-6.233z"/><path d="M2927.35 9.861l-39.382 37.156c-.834 1.179-1.191 2.633-.996 4.064.195 1.432.927 2.737 2.046 3.65.844 1.176 2.105 1.985 3.525 2.262 1.421.276 2.894 0 4.117-.773l39.372-37.157c.843-1.175 1.205-2.63 1.011-4.063-.193-1.434-.927-2.741-2.051-3.651-.85-1.168-2.111-1.971-3.528-2.247-1.418-.276-2.888-.005-4.114.759z"/></g><g  fill="#ffffff" ><path d="M2951.989 17.008l39.288 37.383c1.221.779 2.696 1.062 4.119.791 1.424-.271 2.691-1.076 3.541-2.249 1.124-.912 1.86-2.217 2.06-3.65.199-1.433-.153-2.889-.985-4.073l-39.279-37.382c-1.224-.77-2.696-1.048-4.117-.778-1.421.271-2.687 1.07-3.543 2.236-1.133.904-1.878 2.21-2.079 3.645-.202 1.436.154 2.896.995 4.077z"/><path d="M2981.779 25.6h-11.558c-.552.425-.953 3.185-.935 6.257-.014 1.052.013 2.083.084 3.006.057.922.159 1.738.304 2.358.144.62.329 1.041.546 1.179h11.559c.217-.145.413-.568.568-1.188.155-.619.267-1.433.323-2.354.07-.92.084-1.949.034-3.001-.087-3.072-.392-5.861-.925-6.257z"/><path d="M2991.277 9.609l-39.288 37.383c-.831 1.184-1.182 2.642-.981 4.075.201 1.433.94 2.737 2.065 3.647.85 1.174 2.117 1.979 3.54 2.25 1.424.271 2.899-.012 4.12-.792l39.279-37.382c.839-1.181 1.195-2.64.995-4.075-.199-1.435-.941-2.74-2.07-3.648-.856-1.165-2.123-1.965-3.543-2.235-1.421-.271-2.893.007-4.117.777z"/></g><g  fill="#ffffff" ><path d="M3016.007 17.031l39.203 37.588c1.221.785 2.696 1.074 4.123.808 1.426-.266 2.699-1.067 3.554-2.239 1.129-.909 1.872-2.213 2.077-3.647.205-1.435-.142-2.895-.971-4.083L3024.8 7.871c-1.224-.776-2.696-1.06-4.12-.794-1.424.265-2.696 1.061-3.557 2.225-1.139.901-1.889 2.205-2.097 3.643-.207 1.437.144 2.9.981 4.086z"/><path d="M3045.661 25.6h-11.321c-.547.426-.944 3.196-.921 6.279-.009 1.051.02 2.08.09 2.999.059.92.159 1.732.3 2.349.14.617.319 1.035.53 1.173h11.322c.21-.144.4-.565.551-1.182.151-.616.262-1.426.319-2.344.069-.918.085-1.944.041-2.995-.084-3.083-.384-5.883-.911-6.279z"/><path d="M3055.21 9.381l-39.203 37.588c-.828 1.189-1.173 2.65-.966 4.084.207 1.435.951 2.738 2.082 3.645.855 1.172 2.127 1.974 3.554 2.24 1.427.266 2.902-.024 4.123-.809l39.193-37.587c.836-1.186 1.187-2.648.982-4.084-.206-1.437-.953-2.741-2.088-3.646-.861-1.164-2.133-1.959-3.557-2.225-1.424-.265-2.896.019-4.12.794z"/></g><g  fill="#ffffff" ><path d="M3080.024 17.052l39.126 37.772c1.22.791 2.696 1.085 4.126.824 1.429-.261 2.706-1.06 3.566-2.23 1.134-.906 1.882-2.209 2.092-3.645.211-1.435-.132-2.899-.957-4.091L3088.86 7.909c-1.223-.781-2.696-1.07-4.123-.809s-2.703 1.053-3.569 2.216c-1.144.899-1.9 2.202-2.112 3.64-.213 1.439.134 2.905.968 4.096z"/><path d="M3109.554 25.6h-11.108c-.542.426-.935 3.207-.907 6.298-.005 1.05.026 2.077.095 2.995.061.917.16 1.725.297 2.339.137.614.31 1.031.515 1.168h11.108c.204-.143.389-.562.537-1.176.147-.614.256-1.421.315-2.336.068-.915.086-1.94.046-2.99-.08-3.091-.375-5.901-.898-6.298z"/><path d="M3119.15 9.176l-39.126 37.772c-.825 1.194-1.166 2.658-.954 4.093.213 1.436.963 2.739 2.098 3.643.86 1.171 2.137 1.969 3.566 2.23 1.43.262 2.906-.033 4.126-.823l39.117-37.773c.832-1.19 1.179-2.655.968-4.093-.211-1.437-.963-2.741-2.103-3.643-.866-1.162-2.142-1.955-3.569-2.216-1.427-.261-2.9.029-4.123.81z"/></g><g  fill="#ffffff" ><path d="M3144.039 17.071l39.058 37.938c1.218.795 2.695 1.094 4.127.837 1.432-.257 2.713-1.053 3.578-2.222 1.138-.903 1.891-2.206 2.106-3.643.215-1.436-.123-2.902-.946-4.099l-39.049-37.938c-1.221-.785-2.696-1.08-4.125-.823-1.429.257-2.709 1.046-3.58 2.208-1.147.896-1.909 2.199-2.126 3.638-.217 1.44.125 2.909.957 4.104z"/><path d="M3173.458 25.6h-10.916c-.538.427-.927 3.216-.896 6.316-.001 1.049.032 2.074.101 2.989.061.915.159 1.721.293 2.332.134.612.302 1.027.502 1.163h10.916c.199-.143.379-.56.523-1.171.145-.612.253-1.415.313-2.328.068-.913.087-1.936.05-2.985-.076-3.1-.367-5.918-.886-6.316z"/><path d="M3183.097 8.991l-39.058 37.938c-.822 1.198-1.159 2.665-.942 4.102.217 1.436.972 2.738 2.111 3.64.865 1.17 2.146 1.965 3.578 2.222 1.431.258 2.909-.042 4.127-.837l39.049-37.938c.83-1.195 1.172-2.662.957-4.101-.216-1.439-.973-2.742-2.117-3.641-.871-1.162-2.151-1.951-3.58-2.208-1.429-.257-2.904.038-4.125.823z"/></g><g  fill="#ffffff" ><path d="M3208.052 17.087l38.997 38.086c1.217.799 2.696 1.103 4.13.849 1.434-.253 2.718-1.046 3.587-2.214 1.142-.901 1.899-2.203 2.118-3.641.22-1.438-.115-2.906-.936-4.106l-38.987-38.086c-1.22-.79-2.696-1.088-4.127-.835-1.432.253-2.715 1.04-3.59 2.2-1.151.894-1.917 2.196-2.138 3.637-.222 1.44.117 2.912.946 4.11z"/><path d="M3237.373 25.6h-10.745c-.536.428-.921 3.224-.886 6.332.002 1.049.036 2.072.105 2.985.062.912.159 1.716.29 2.325.131.609.296 1.022.49 1.158h10.746c.194-.142.369-.558.511-1.167.142-.609.249-1.41.31-2.321.067-.91.088-1.931.054-2.98-.073-3.108-.36-5.934-.875-6.332z"/><path d="M3247.049 8.827l-38.997 38.086c-.82 1.201-1.153 2.67-.932 4.108.221 1.438.981 2.739 2.124 3.639.869 1.168 2.153 1.961 3.587 2.215 1.434.253 2.913-.051 4.13-.85l38.987-38.086c.828-1.198 1.167-2.668.947-4.108-.219-1.439-.981-2.742-2.129-3.639-.875-1.16-2.158-1.947-3.59-2.2-1.431-.253-2.907.045-4.127.835z"/></g><g  fill="#ffffff" ><path d="M3272.064 17.102l38.943 38.216c1.216.803 2.695 1.111 4.131.86 1.436-.25 2.724-1.041 3.597-2.208 1.144-.899 1.906-2.201 2.129-3.639.223-1.438-.109-2.909-.928-4.113l-38.933-38.216c-1.219-.793-2.695-1.095-4.129-.845-1.433.25-2.72 1.034-3.599 2.193-1.154.892-1.923 2.194-2.149 3.635-.225 1.441.111 2.915.938 4.117z"/><path d="M3301.297 25.6h-10.594c-.532.428-.914 3.231-.876 6.345.005 1.049.04 2.071.109 2.982.063.911.159 1.711.287 2.318.129.608.289 1.02.48 1.155h10.594c.19-.142.362-.556.501-1.163.14-.607.246-1.406.307-2.315.067-.909.09-1.928.059-2.977-.071-3.114-.354-5.947-.867-6.345z"/><path d="M3311.007 8.682l-38.943 38.216c-.818 1.205-1.148 2.676-.923 4.115.225 1.438.988 2.739 2.134 3.637.873 1.167 2.161 1.957 3.597 2.208 1.436.25 2.915-.057 4.131-.86l38.933-38.216c.826-1.202 1.162-2.674.938-4.115-.223-1.44-.989-2.742-2.139-3.637-.879-1.159-2.166-1.944-3.599-2.194-1.434-.25-2.91.053-4.129.846z"/></g><g  fill="#ffffff" ><path d="M3336.074 17.115l38.896 38.33c1.216.806 2.695 1.117 4.133.869 1.438-.247 2.728-1.036 3.604-2.202 1.148-.898 1.912-2.199 2.138-3.638.227-1.439-.102-2.912-.919-4.118l-38.886-38.33c-1.219-.796-2.695-1.102-4.131-.855-1.435.247-2.724 1.03-3.606 2.188-1.157.891-1.93 2.191-2.158 3.633-.229 1.442.104 2.918.929 4.123z"/><path d="M3365.231 25.6h-10.462c-.53.428-.909 3.238-.868 6.358.007 1.048.044 2.068.112 2.977.064.91.159 1.709.285 2.314.127.605.284 1.016.47 1.151h10.463c.187-.141.355-.555.492-1.16.137-.605.243-1.402.305-2.309.067-.907.09-1.925.062-2.974-.069-3.119-.349-5.958-.859-6.357z"/><path d="M3374.97 8.555l-38.896 38.33c-.816 1.208-1.143 2.681-.915 4.12.228 1.44.995 2.74 2.144 3.636.876 1.166 2.166 1.955 3.604 2.202 1.438.248 2.917-.063 4.133-.869l38.886-38.33c.824-1.204 1.157-2.679.93-4.12-.226-1.441-.996-2.743-2.149-3.636-.882-1.158-2.171-1.941-3.606-2.188-1.436-.247-2.912.059-4.131.855z"/></g><g  fill="#ffffff" ><path d="M3400.083 17.126l38.855 38.428c1.215.809 2.695 1.123 4.135.878 1.439-.246 2.731-1.032 3.61-2.198 1.15-.896 1.918-2.196 2.147-3.636.229-1.44-.098-2.914-.913-4.123l-38.845-38.428c-1.218-.8-2.696-1.108-4.132-.863-1.437.244-2.728 1.025-3.613 2.183-1.16.889-1.936 2.189-2.167 3.632-.231 1.442.099 2.92.923 4.127z"/><path d="M3429.175 25.6h-10.349c-.528.429-.905 3.243-.862 6.368.01 1.048.048 2.067.116 2.975.064.908.159 1.705.283 2.309.125.604.279 1.014.462 1.148h10.35c.183-.141.348-.553.483-1.157.136-.604.24-1.399.304-2.305.066-.905.09-1.922.064-2.97-.066-3.125-.344-5.969-.851-6.368z"/><path d="M3438.938 8.446l-38.855 38.428c-.814 1.21-1.139 2.685-.908 4.125.231 1.44 1 2.74 2.152 3.634.879 1.166 2.171 1.953 3.61 2.198 1.44.245 2.92-.069 4.135-.878l38.845-38.428c.822-1.206 1.153-2.683.924-4.124-.23-1.442-1.002-2.743-2.158-3.635-.885-1.158-2.176-1.938-3.613-2.183-1.436-.245-2.914.064-4.132.863z"/></g><g  fill="#ffffff" ><path d="M3464.09 17.135l38.821 38.512c1.215.811 2.695 1.127 4.136.884 1.44-.243 2.735-1.028 3.616-2.193 1.152-.895 1.922-2.195 2.153-3.636.232-1.44-.092-2.916-.906-4.126l-38.811-38.512c-1.218-.802-2.696-1.113-4.133-.87-1.438.243-2.732 1.022-3.619 2.179-1.162.888-1.94 2.188-2.174 3.631-.233 1.443.095 2.923.917 4.131z"/><path d="M3493.126 25.6h-10.252c-.526.429-.901 3.248-.856 6.377.012 1.047.051 2.065.118 2.972.065.907.159 1.703.282 2.305.123.603.275 1.012.455 1.146h10.253c.181-.141.344-.552.478-1.155.133-.602.237-1.396.301-2.3.066-.905.092-1.921.067-2.968-.065-3.129-.34-5.978-.846-6.377z"/><path d="M3502.911 8.353l-38.821 38.512c-.812 1.212-1.135 2.688-.902 4.129.233 1.44 1.005 2.739 2.159 3.633.881 1.165 2.176 1.95 3.616 2.193 1.441.244 2.921-.073 4.136-.884l38.811-38.512c.821-1.208 1.149-2.686.917-4.128-.231-1.443-1.006-2.743-2.164-3.634-.887-1.157-2.181-1.936-3.619-2.179-1.437-.242-2.915.069-4.133.87z"/></g><g  fill="#ffffff" ><path d="M3528.097 17.143l38.792 38.58c1.214.814 2.695 1.132 4.136.891 1.442-.242 2.738-1.026 3.621-2.19 1.154-.894 1.926-2.194 2.159-3.635.234-1.441-.089-2.918-.901-4.13l-38.783-38.58c-1.217-.804-2.695-1.117-4.134-.876-1.439.241-2.734 1.019-3.623 2.175-1.164.887-1.944 2.187-2.18 3.631-.235 1.443.091 2.924.913 4.134z"/><path d="M3557.087 25.6h-10.174c-.523.429-.897 3.252-.85 6.384.013 1.047.053 2.065.12 2.97.065.906.159 1.701.28 2.302.122.602.272 1.01.45 1.144h10.174c.178-.141.339-.551.471-1.153.133-.601.236-1.393.3-2.297.066-.904.092-1.919.069-2.966-.063-3.132-.337-5.984-.84-6.384z"/><path d="M3566.889 8.277l-38.792 38.58c-.812 1.213-1.133 2.691-.898 4.132.235 1.441 1.009 2.74 2.165 3.633.883 1.164 2.179 1.948 3.621 2.19 1.441.241 2.922-.078 4.136-.891l38.783-38.58c.819-1.21 1.146-2.689.912-4.132-.233-1.443-1.01-2.743-2.17-3.633-.889-1.156-2.184-1.934-3.623-2.175-1.439-.241-2.917.072-4.134.876z"/></g><g  fill="#ffffff" ><path d="M3592.101 17.149l38.77 38.636c1.214.815 2.695 1.135 4.137.895 1.443-.241 2.74-1.023 3.625-2.188 1.155-.893 1.929-2.192 2.164-3.634.234-1.441-.087-2.919-.898-4.132l-38.76-38.636c-1.217-.805-2.695-1.12-4.135-.88-1.44.24-2.736 1.016-3.627 2.173-1.165.886-1.947 2.185-2.184 3.629-.237 1.444.088 2.925.908 4.137z"/><path d="M3621.055 25.6h-10.11c-.522.43-.894 3.255-.846 6.39.014 1.047.054 2.064.121 2.969.066.905.159 1.698.28 2.299.121.601.269 1.008.445 1.142h10.11c.176-.14.335-.55.467-1.151.131-.601.235-1.392.299-2.295.066-.903.092-1.917.07-2.964-.062-3.135-.334-5.99-.836-6.39z"/><path d="M3630.871 8.215l-38.77 38.636c-.81 1.215-1.13 2.693-.893 4.134.237 1.442 1.012 2.741 2.169 3.632.885 1.164 2.182 1.947 3.625 2.188 1.442.24 2.923-.081 4.137-.895l38.76-38.636c.818-1.211 1.144-2.691.909-4.134-.236-1.443-1.014-2.744-2.175-3.632-.891-1.157-2.187-1.933-3.627-2.173s-2.918.075-4.135.88z"/></g><g  fill="#ffffff" ><path d="M3656.105 17.154l38.752 38.678c1.214.815 2.695 1.137 4.138.898s2.742-1.021 3.628-2.185c1.156-.893 1.931-2.192 2.167-3.634.236-1.441-.084-2.92-.895-4.134l-38.742-38.678c-1.217-.806-2.696-1.122-4.136-.884-1.44.239-2.738 1.015-3.63 2.171-1.165.885-1.949 2.185-2.187 3.629-.238 1.444.086 2.926.905 4.139z"/><path d="M3685.03 25.6h-10.06c-.522.43-.893 3.257-.844 6.394.015 1.047.056 2.063.123 2.968.066.904.159 1.697.279 2.297.12.6.267 1.007.442 1.141h10.06c.175-.14.334-.55.464-1.15.131-.6.234-1.39.299-2.293.065-.902.092-1.916.071-2.963-.061-3.137-.332-5.994-.834-6.394z"/><path d="M3694.857 8.168l-38.752 38.678c-.81 1.216-1.128 2.695-.89 4.137.238 1.441 1.015 2.74 2.172 3.631.886 1.164 2.185 1.946 3.628 2.185 1.443.239 2.924-.082 4.138-.898l38.742-38.678c.818-1.212 1.142-2.693.906-4.136-.236-1.444-1.016-2.744-2.178-3.632-.892-1.156-2.19-1.932-3.63-2.17-1.44-.239-2.919.077-4.136.883z"/></g><g  fill="#ffffff" ><path d="M3720.108 17.157l38.739 38.707c1.214.817 2.696 1.139 4.139.901 1.444-.238 2.743-1.02 3.63-2.184 1.156-.892 1.932-2.191 2.169-3.633.237-1.441-.082-2.92-.893-4.136l-38.729-38.707c-1.217-.807-2.696-1.124-4.137-.886-1.441.238-2.739 1.014-3.632 2.169-1.166.885-1.95 2.184-2.189 3.629-.24 1.444.084 2.927.903 4.14z"/><path d="M3749.013 25.6h-10.026c-.521.43-.891 3.259-.842 6.398.016 1.046.057 2.062.124 2.966.066.904.159 1.696.278 2.296.119.6.266 1.007.44 1.14h10.026c.174-.14.332-.549.462-1.149.13-.599.233-1.389.298-2.291.065-.902.092-1.916.072-2.962-.061-3.139-.331-5.998-.832-6.398z"/><path d="M3758.847 8.136l-38.739 38.707c-.81 1.216-1.127 2.696-.889 4.138.239 1.442 1.017 2.74 2.175 3.631.887 1.163 2.186 1.945 3.63 2.183 1.443.239 2.925-.084 4.139-.9l38.729-38.707c.818-1.213 1.141-2.695.904-4.138-.237-1.444-1.018-2.744-2.18-3.631-.893-1.156-2.191-1.931-3.632-2.169-1.441-.238-2.92.078-4.137.886z"/></g><g  fill="#ffffff" ><path d="M3784.109 17.159l38.733 38.725c1.214.817 2.695 1.14 4.139.902 1.444-.238 2.743-1.02 3.63-2.183 1.158-.892 1.934-2.191 2.171-3.633.238-1.442-.081-2.921-.891-4.137l-38.723-38.724c-1.217-.808-2.695-1.125-4.136-.888-1.441.238-2.74 1.013-3.633 2.169-1.167.884-1.952 2.183-2.192 3.628-.239 1.444.084 2.927.902 4.141z"/><path d="M3813.003 25.6h-10.006c-.52.43-.891 3.26-.841 6.399.017 1.047.058 2.063.125 2.966.066.904.158 1.696.277 2.296.119.599.265 1.006.439 1.139h10.006c.174-.14.331-.549.46-1.148.13-.6.233-1.389.298-2.291.065-.902.093-1.915.073-2.962-.06-3.139-.331-5.999-.831-6.399z"/><path d="M3822.842 8.116l-38.733 38.725c-.809 1.217-1.126 2.697-.887 4.139.239 1.442 1.018 2.74 2.177 3.63.887 1.164 2.186 1.945 3.63 2.183 1.444.238 2.925-.085 4.139-.902l38.723-38.724c.817-1.214 1.14-2.695.902-4.139-.237-1.444-1.018-2.743-2.182-3.631-.893-1.155-2.192-1.931-3.633-2.168-1.441-.238-2.919.08-4.136.887z"/></g><g  fill="#ffffff" ><path d="M3848.11 17.16l38.73 38.73c1.214.817 2.695 1.14 4.139.903 1.444-.238 2.744-1.02 3.631-2.183 1.157-.892 1.934-2.191 2.172-3.633.237-1.441-.082-2.921-.892-4.137l-38.72-38.73c-1.217-.808-2.696-1.125-4.137-.888-1.441.237-2.74 1.013-3.633 2.168-1.167.885-1.952 2.184-2.192 3.628-.239 1.445.083 2.928.902 4.142z"/><path d="M3877 25.6h-10c-.52.43-.89 3.26-.84 6.4.017 1.047.058 2.062.124 2.966.067.904.159 1.695.278 2.295.119.599.265 1.006.438 1.139h10c.173-.14.33-.549.46-1.148.129-.599.232-1.389.297-2.291.065-.901.093-1.914.073-2.961-.06-3.14-.33-6-.83-6.4z"/><path d="M3886.84 8.11l-38.73 38.73c-.809 1.217-1.126 2.697-.887 4.139.239 1.442 1.018 2.741 2.177 3.631.887 1.163 2.187 1.945 3.631 2.183 1.444.237 2.925-.086 4.139-.903l38.72-38.73c.817-1.214 1.14-2.695.903-4.139-.238-1.444-1.02-2.744-2.183-3.631-.893-1.155-2.192-1.931-3.633-2.168-1.441-.237-2.92.08-4.137.888z"/></g></svg>