<svg id="Camada_1" data-name="Camada 1" xmlns="http://www.w3.org/2000/svg" viewBox="0 0 625.52 256.11">
  <defs>
    <style>
      .cls-1 {
        fill: #393e47;
        stroke: #fff;
        stroke-width: 10px;
      }

      .cls-1, .cls-3 {
        stroke-miterlimit: 10;
      }

      .cls-2, .cls-3 {
        fill: #fff;
      }

      .cls-3 {
        stroke: #393e47;
      }
    </style>
  </defs>
  <title>LogoFinal</title>
  <path class="cls-1" d="M96.5,251.11c-1.44,0-2.91,0-4.37-.12-21.78-1-43.22-9.72-58.85-23.8C14.78,210.5,5,187.14,5,159.61A91.34,91.34,0,0,1,92.12,68.22c1.51-.07,3-.11,4.38-.11h2.2a90.47,90.47,0,0,1,55.46,20.58l3.34,2.72.71-4.25A49.54,49.54,0,0,1,166.37,67a50.49,50.49,0,0,1,83.26,0l.05.07.06.08,2.39,3.61,1.92-3.9q.06-.15.12-.27a108.51,108.51,0,0,1,204.71,28.2l.84,4.85,3.42-3.54a90.72,90.72,0,0,1,65.86-28c2,0,4,.06,5.83.18a91.5,91.5,0,0,1,0,182.63c-1.86.13-3.83.19-5.84.19Z"/>
  <g>
    <g>
      <path class="cls-2" d="M60.12,197q-3.9-4.42-3.9-8t6.45-9.34a11.89,11.89,0,0,1,8-3.32q4.2,0,11.71,6.92a22,22,0,0,0,6,4.49,15.15,15.15,0,0,0,7.2,2.15q14,0,14-10.51c0-2.12-1.28-3.89-3.83-5.33a29.72,29.72,0,0,0-9.53-3.11,85.53,85.53,0,0,1-12.3-3.11,84.19,84.19,0,0,1-12.31-5A23.8,23.8,0,0,1,62,153.61a28.48,28.48,0,0,1-3.83-15.14q0-12.16,9.83-21.23t26.78-9.06a59.22,59.22,0,0,1,16.43,2.14q7.44,2.16,10.28,4.36l3.75,2.63c3.1,2.67,4.66,4.93,4.66,6.77s-1.2,4.38-3.61,7.61q-5.1,6.92-10.5,6.92-3.15,0-7.8-2.77a15.39,15.39,0,0,1-1.73-1.38,22.47,22.47,0,0,0-2.32-1.8,16.09,16.09,0,0,0-8-1.8,14.45,14.45,0,0,0-8.1,2.14A6.8,6.8,0,0,0,84.61,139c0,2.54,1.27,4.59,3.83,6.16A24.78,24.78,0,0,0,98,148.29a119.64,119.64,0,0,1,12.46,2.56,82.51,82.51,0,0,1,12.45,4.21,21.41,21.41,0,0,1,9.53,8.65q3.82,6.15,3.83,15.14a31.4,31.4,0,0,1-3.9,15.84,28.4,28.4,0,0,1-10.21,10.58,49.33,49.33,0,0,1-26,7.33A54.12,54.12,0,0,1,82.77,211a37.72,37.72,0,0,1-10.21-3.94q-7.95-4.41-11.1-8.58Z"/>
      <path class="cls-2" d="M188.87,162.82l-9.75-.55v19.08q0,3.74,1.27,5.4c.85,1.1,2.45,1.66,4.8,1.66s4.15.07,5.4.2a11.57,11.57,0,0,1,4,1.32q3.45,1.8,3.45,9.26,0,8.72-4.2,10.65a14.73,14.73,0,0,1-4,1.18,41.73,41.73,0,0,1-5,.21q-15.61,0-23.71-6.5t-8.1-22V162.27a43.76,43.76,0,0,1-6.16.41,7.07,7.07,0,0,1-5.47-2.35c-1.46-1.57-2.18-4.24-2.18-8a32.53,32.53,0,0,1,.75-8.23,7.28,7.28,0,0,1,2.1-3.67,9.88,9.88,0,0,1,6-1.79l5,.55V124.92a35.14,35.14,0,0,1,.22-4.7,8.27,8.27,0,0,1,1.43-3.32c1.29-2.3,5.15-3.46,11.55-3.46q10.2,0,12.15,5.12a24.06,24.06,0,0,1,.76,7.06v13.55q6.6-.55,10-.55c1.71,0,3.41,0,5.11.2a12.81,12.81,0,0,1,4,1.32q3.9,1.8,3.9,10.65t-4,10.65a14.71,14.71,0,0,1-4,1.17A47.23,47.23,0,0,1,188.87,162.82Z"/>
      <path class="cls-2" d="M220.68,147.47a43.76,43.76,0,0,1,57.47-.07,34.45,34.45,0,0,1,12.46,27.31,33.92,33.92,0,0,1-6.46,20.4,39.36,39.36,0,0,1-15.68,13.14,45.45,45.45,0,0,1-19.13,4.22A43.69,43.69,0,0,1,230.13,208a41.46,41.46,0,0,1-15.68-13.28,33,33,0,0,1-6.38-19.85A34.5,34.5,0,0,1,220.68,147.47Zm18.76,37.27a16.69,16.69,0,0,0,9.75,3.39,17.14,17.14,0,0,0,9.9-3.46q4.95-3.45,5-10.23t-4.66-10.1A17.05,17.05,0,0,0,249.38,161a16.6,16.6,0,0,0-10,3.46q-4.66,3.48-4.66,10.16t4.72,10.1Z"/>
      <path class="cls-2" d="M354.08,139.17A10.37,10.37,0,0,1,358.8,142c1.25,1.34,1.88,3.48,1.88,6.44a20.52,20.52,0,0,1-2.85,9.68q-2.85,5.25-8.25,5.25a12.33,12.33,0,0,1-5.18-1.1,16.37,16.37,0,0,0-6.53-1.11,12.47,12.47,0,0,0-7.58,2.63,7.73,7.73,0,0,0-3.52,6.36v29a36.27,36.27,0,0,1-.23,4.78,10.49,10.49,0,0,1-1.42,3.66q-2.25,3.6-11.71,3.6-7.2,0-10.35-2.35a8,8,0,0,1-2.7-6V150.37a36.27,36.27,0,0,1,.22-4.77,10.93,10.93,0,0,1,1.28-3.53q2.1-3.73,11.7-3.73,9,0,11.26,3.18a7.51,7.51,0,0,1,1.65,4.56,25.38,25.38,0,0,1,2.17-2.35,28.69,28.69,0,0,1,6.08-3.73,18.72,18.72,0,0,1,8.18-2.39,43.59,43.59,0,0,1,5.93.34A41.19,41.19,0,0,1,354.08,139.17Z"/>
      <path class="cls-2" d="M394.74,148q7-9.81,17-9.82,15.3,0,22.81,12a48.39,48.39,0,0,1,4-4.35,33.28,33.28,0,0,1,7.43-5,22.25,22.25,0,0,1,10.5-2.7,26.67,26.67,0,0,1,20.11,8.51q8.1,8.52,8.1,28.14l.31,8.81,12-5-12,11-.38,9.45a36.11,36.11,0,0,1-.22,4.77,10.51,10.51,0,0,1-1.43,3.66q-2,3.75-11.55,3.74t-11.56-3.88a11.88,11.88,0,0,1-1.27-3.66c-.15-1.08,12.41-10,12.41-12.08l-13,5,.36-21.9q0-12-9.3-12-5.25,0-7.13,3.18c-1.25,2.12-1.88,5.12-1.87,9V199.1a37.18,37.18,0,0,1-.23,4.84,10.54,10.54,0,0,1-1.42,3.59q-2.12,3.75-11.71,3.74t-11.55-3.88a12.17,12.17,0,0,1-1.28-3.66,36.11,36.11,0,0,1-.22-4.77V174.71q0-12-9.31-12-9,0-9,12v24.48a36.26,36.26,0,0,1-.22,4.78,10.51,10.51,0,0,1-1.43,3.66q-2.25,3.6-11.7,3.6t-11.56-3.74a12,12,0,0,1-1.27-3.59,37.18,37.18,0,0,1-.23-4.84V150.37a36.28,36.28,0,0,1,.23-4.77,9.44,9.44,0,0,1,1.42-3.53q2.25-3.73,10.65-3.73t11,2.49Q394.73,143.32,394.74,148Z"/>
    </g>
    <polyline class="cls-3" points="532.49 178.41 517.86 185.08 526.38 163.36 504.42 120.34 492.81 106.05 524.3 110 541.84 141.53 568.54 103.69 604 81.61 567.6 144.1 547.89 168.87 574.85 152.67 553.72 175.45 490.32 251.25 514.78 192.61"/>
  </g>
</svg>
