<svg id="aa0101a7-f90e-40b6-aff8-9efe4915b117" data-name="Camada 1" xmlns="http://www.w3.org/2000/svg" viewBox="0 0 696.5 289.36">
  <defs>
    <style>
      .b331051c-af7d-4f61-ba01-5228bb7b68bb {
        fill: #7fe7ff;
      }

      .bb51ceca-62a1-4f2c-b38e-09c7efbbec2e {
        fill: #292c33;
      }

      .a1d8dfbe-3d80-4a7b-8c15-1114f4aec6a3 {
        fill: #393e47;
      }

      .f4620afb-d1a1-4662-a773-cad8e39f3051 {
        font-size: 179.61px;
        font-family: FredokaOne-Regular, Fredoka One;
      }

      .f4620afb-d1a1-4662-a773-cad8e39f3051, .fcf86271-6918-4d97-bb26-42d68e2c9090 {
        fill: #fff;
      }

      .b02c3b86-21ae-4d94-80af-4f9ef7b4cb32 {
        letter-spacing: -0.02em;
      }
    </style>
  </defs>
  <title>LOGO 3</title>
  <polygon class="b331051c-af7d-4f61-ba01-5228bb7b68bb" points="529.66 0 373.56 147.49 456 147.48 188.09 289.36 329.77 166.61 251.04 170.54 529.66 0"/>
  <path class="bb51ceca-62a1-4f2c-b38e-09c7efbbec2e" d="M563.5,205.08,535,228.69c.37.27.75.52,1.13.77a90.64,90.64,0,0,1-117.35,1.12,90.47,90.47,0,0,1-93.12,5.79,90.5,90.5,0,0,1-99.75-5.93A90.5,90.5,0,0,1,159,229.9l.81-.53-.8.21s-33-41-34-44S160.78,57.17,162.9,49.91c0-.06,0-.11,0-.15l.37-.13A90.51,90.51,0,0,1,247.46,62.7l0,0h0A90.43,90.43,0,0,1,322,66.79a90.53,90.53,0,0,1,103.38,8.79,90.47,90.47,0,0,1,89.14-7.74l-.19.23h.18l22,16,27,30Z"/>
  <path class="bb51ceca-62a1-4f2c-b38e-09c7efbbec2e" d="M163,49.76s0,.09,0,.15l-.13-.09Z"/>
  <path class="a1d8dfbe-3d80-4a7b-8c15-1114f4aec6a3" d="M696.5,139.08c0,59.37-46.59,107.5-104.06,107.5q-5.12,0-10.09-.5a101.13,101.13,0,0,1-46.25-16.62,102.82,102.82,0,0,1-11.56-8.92,75.92,75.92,0,0,1-92.31-1.22,78.52,78.52,0,0,1-11.52-11,78.41,78.41,0,0,1-13.65,10.78,75.77,75.77,0,0,1-79.61.45A77.54,77.54,0,0,1,313,228.4a75.87,75.87,0,0,1-73.15-4.81,78.45,78.45,0,0,1-14.46-11.89,75.9,75.9,0,0,1-52,7.09A105.56,105.56,0,0,1,159,229.9a101.08,101.08,0,0,1-54.93,16.18q-3.66,0-7.26-.26C42.72,242,0,195.43,0,138.58S42.72,35.19,96.8,31.34q3.6-.25,7.26-.26a101.2,101.2,0,0,1,58.71,18.74,104.73,104.73,0,0,1,13.15,11,76,76,0,0,1,54.59,10.63,78.42,78.42,0,0,1,14.61,12,75.92,75.92,0,0,1,60.56-4.67,76.85,76.85,0,0,1,14.49,6.85A76.88,76.88,0,0,1,336.31,76a75.89,75.89,0,0,1,77,9.41,79.36,79.36,0,0,1,12,11.44,77.53,77.53,0,0,1,11.85-9.62,75.93,75.93,0,0,1,68.67-7.83,106.53,106.53,0,0,1,8.64-11.58c19-22.13,46.62-36.11,77.44-36.25h.49C649.91,31.58,696.5,79.71,696.5,139.08Z"/>
  <text class="f4620afb-d1a1-4662-a773-cad8e39f3051" transform="translate(47.47 203.69) scale(0.98 1)"><tspan class="b02c3b86-21ae-4d94-80af-4f9ef7b4cb32">S</tspan><tspan x="101.12" y="0">torm</tspan></text>
  <path class="fcf86271-6918-4d97-bb26-42d68e2c9090" d="M585,185.3l12.67-29-22-39.79L564,103.25l31.66,3.63,17.59,29.17L640.1,101l35.66-20.47-36.65,57.89-9.53,16.17,16.82-8.25-21.27,23L564,230.08l21-44.78"/>
</svg>
