<svg id="af9f4902-c355-4d57-8054-9d3ca428245c" data-name="Camada 1" xmlns="http://www.w3.org/2000/svg" viewBox="0 0 696.5 289.36"><defs><style>.e71d97e4-2da6-4db7-b325-25e71619b632{fill:#7fe7ff;}.ef30f0c6-e807-4c2b-a55f-f14b189a651d{fill:#292c33;}.eaeddbe1-4b3b-4370-a354-ed439f5c454d{fill:#393e47;}.bf30beaf-79f7-4e2e-b612-13dfbe07cbca{fill:#fff;}</style></defs><title>LOGO 5</title><polygon class="e71d97e4-2da6-4db7-b325-25e71619b632" points="529.66 0 373.56 147.49 456 147.48 188.09 289.36 329.77 166.61 251.04 170.54 529.66 0"/><path class="ef30f0c6-e807-4c2b-a55f-f14b189a651d" d="M163,49.76s0,.09,0,.15l-.13-.09Z"/><path class="eaeddbe1-4b3b-4370-a354-ed439f5c454d" d="M696.5,139.08c0,59.37-46.59,107.5-104.06,107.5q-5.12,0-10.09-.5a101.13,101.13,0,0,1-46.25-16.62,102.82,102.82,0,0,1-11.56-8.92,75.92,75.92,0,0,1-92.31-1.22,78.52,78.52,0,0,1-11.52-11,78.41,78.41,0,0,1-13.65,10.78,75.77,75.77,0,0,1-79.61.45A77.54,77.54,0,0,1,313,228.4a75.87,75.87,0,0,1-73.15-4.81,78.45,78.45,0,0,1-14.46-11.89,75.9,75.9,0,0,1-52,7.09A105.56,105.56,0,0,1,159,229.9a101.08,101.08,0,0,1-54.93,16.18q-3.66,0-7.26-.26C42.72,242,0,195.43,0,138.58S42.72,35.19,96.8,31.34q3.6-.25,7.26-.26a101.2,101.2,0,0,1,58.71,18.74,104.73,104.73,0,0,1,13.15,11,76,76,0,0,1,54.59,10.63,78.42,78.42,0,0,1,14.61,12,75.92,75.92,0,0,1,60.56-4.67,76.85,76.85,0,0,1,14.49,6.85A76.88,76.88,0,0,1,336.31,76a75.89,75.89,0,0,1,77,9.41,79.36,79.36,0,0,1,12,11.44,77.53,77.53,0,0,1,11.85-9.62,75.93,75.93,0,0,1,68.67-7.83,106.53,106.53,0,0,1,8.64-11.58c19-22.13,46.62-36.11,77.44-36.25h.49C649.91,31.58,696.5,79.71,696.5,139.08Z"/><path class="bf30beaf-79f7-4e2e-b612-13dfbe07cbca" d="M56.46,185.19q-4.59-5.74-4.58-10.33t7.58-12.12q4.41-4.31,9.34-4.31t13.76,9a26.77,26.77,0,0,0,7,5.84A16.59,16.59,0,0,0,98.07,176q16.4,0,16.4-13.65c0-2.75-1.5-5.06-4.5-6.91a32.48,32.48,0,0,0-11.19-4.05,93.44,93.44,0,0,1-14.46-4,94.52,94.52,0,0,1-14.46-6.55q-6.7-3.78-11.19-12t-4.5-19.66q0-15.81,11.55-27.57T97.19,69.88a63.21,63.21,0,0,1,19.31,2.79q8.73,2.77,12.08,5.65l4.4,3.42q5.47,5.2,5.47,8.8t-4.23,9.88q-6,9-12.34,9-3.7,0-9.17-3.6a19.47,19.47,0,0,1-2-1.79,27.46,27.46,0,0,0-2.73-2.34,17.49,17.49,0,0,0-9.44-2.33A15.7,15.7,0,0,0,89,102.12a9,9,0,0,0-3.79,7.73,9.28,9.28,0,0,0,4.5,8A27.47,27.47,0,0,0,100.89,122a131.68,131.68,0,0,1,14.64,3.32,89.94,89.94,0,0,1,14.63,5.48q6.71,3.22,11.2,11.22t4.49,19.67a44.22,44.22,0,0,1-4.58,20.57,35.43,35.43,0,0,1-12,13.74,54.06,54.06,0,0,1-30.5,9.52,58.09,58.09,0,0,1-15.7-2.07,41.72,41.72,0,0,1-12-5.12q-9.36-5.75-13-11.13Z"/><path class="bf30beaf-79f7-4e2e-b612-13dfbe07cbca" d="M207.74,140.83l-11.46-.72v24.78c0,3.24.5,5.57,1.5,7s2.88,2.15,5.64,2.15a56.12,56.12,0,0,1,6.35.27,12.31,12.31,0,0,1,4.67,1.71q4.06,2.34,4.06,12,0,11.33-4.94,13.83a16.08,16.08,0,0,1-4.67,1.53,48.2,48.2,0,0,1-5.91.27q-18.33,0-27.86-8.44t-9.52-28.56V140.11a45.43,45.43,0,0,1-7.23.54,8,8,0,0,1-6.43-3.06q-2.56-3-2.56-10.41a46,46,0,0,1,.88-10.69,9.7,9.7,0,0,1,2.47-4.76,10.72,10.72,0,0,1,7.05-2.33l5.82.71V91.61a49.62,49.62,0,0,1,.27-6.1,11.33,11.33,0,0,1,1.67-4.31q2.29-4.49,13.58-4.49,12,0,14.28,6.64a34.12,34.12,0,0,1,.88,9.16v17.6q7.75-.7,11.73-.71a49.13,49.13,0,0,1,6,.27,13.87,13.87,0,0,1,4.67,1.7q4.59,2.34,4.59,13.83,0,11.31-4.76,13.83a16.08,16.08,0,0,1-4.67,1.53A50.34,50.34,0,0,1,207.74,140.83Z"/><path class="bf30beaf-79f7-4e2e-b612-13dfbe07cbca" d="M312.65,120.8Q298,106.9,279,106.88t-33.85,14q-14.81,14-14.81,35.57a45.91,45.91,0,0,0,7.49,25.77,50.36,50.36,0,0,0,18.43,17.24,47.25,47.25,0,0,0,22.57,5.84,49.16,49.16,0,0,0,22.48-5.48q10.85-5.47,18.42-17.06a47.23,47.23,0,0,0,7.59-26.49Q327.29,134.73,312.65,120.8Zm-22.39,48.41q-5.82,4.48-11.64,4.49t-11.46-4.4q-5.64-4.4-5.64-13.11T267,143a18.25,18.25,0,0,1,11.82-4.49,18.65,18.65,0,0,1,11.81,4.31q5.46,4.31,5.47,13.11T290.26,169.21Z"/><path class="bf30beaf-79f7-4e2e-b612-13dfbe07cbca" d="M401.87,110.11a11.89,11.89,0,0,1,5.55,3.69c1.47,1.73,2.21,4.52,2.21,8.35a28.75,28.75,0,0,1-3.36,12.57q-3.34,6.83-9.69,6.83a13.56,13.56,0,0,1-6.09-1.44,17.37,17.37,0,0,0-7.67-1.44,13.77,13.77,0,0,0-8.9,3.41,10.37,10.37,0,0,0-4.14,8.27v37.71a52,52,0,0,1-.27,6.2,14.41,14.41,0,0,1-1.67,4.76q-2.65,4.68-13.76,4.67-8.46,0-12.16-3.05c-1.88-1.68-2.94-4.25-3.18-7.73V124.66a51.9,51.9,0,0,1,.27-6.19,14.7,14.7,0,0,1,1.5-4.58Q343,109,354.26,109q10.58,0,13.22,4.13a10.4,10.4,0,0,1,1.94,5.93A29.86,29.86,0,0,1,372,116q1.68-1.79,7.14-4.85t9.61-3a45.44,45.44,0,0,1,7,.45A43.41,43.41,0,0,1,401.87,110.11Z"/><path class="bf30beaf-79f7-4e2e-b612-13dfbe07cbca" d="M449.65,121.61q8.28-12.75,19.92-12.75,18,0,26.8,15.62a60.86,60.86,0,0,1,4.67-5.65,38.42,38.42,0,0,1,8.73-6.47,24.12,24.12,0,0,1,12.34-3.5q14.11,0,23.63,11t9.52,36.55v31.43a54.75,54.75,0,0,1-.26,6.2,14.7,14.7,0,0,1-1.68,4.76q-2.3,4.84-13.57,4.85-11.12,0-13.58-5a17.1,17.1,0,0,1-1.5-4.76,52.46,52.46,0,0,1-.26-6.2V156.27q0-15.61-10.94-15.62-6.17,0-8.37,4.13t-2.21,11.67v31.43a52.28,52.28,0,0,1-.26,6.29,14.74,14.74,0,0,1-1.67,4.67q-2.47,4.84-13.76,4.85-11.1,0-13.57-5a16.46,16.46,0,0,1-1.5-4.76,52,52,0,0,1-.27-6.2V156.27q0-15.61-10.93-15.62-10.57,0-10.58,15.62v31.79a54.75,54.75,0,0,1-.26,6.2,14.7,14.7,0,0,1-1.68,4.76q-2.64,4.68-13.75,4.67t-13.58-4.85a17.25,17.25,0,0,1-1.5-4.67,54.51,54.51,0,0,1-.26-6.29V124.66a54.67,54.67,0,0,1,.26-6.19,13,13,0,0,1,1.68-4.58Q423.9,109,433.78,109t12.87,3.23Q449.65,115.51,449.65,121.61Z"/><path class="bf30beaf-79f7-4e2e-b612-13dfbe07cbca" d="M585,185.3l12.67-29-22-39.79L564,103.25l31.66,3.63,17.59,29.17L640.1,101l35.66-20.47-36.65,57.89-9.53,16.17,16.82-8.25-21.27,23L564,230.08l21-44.78"/><path class="e71d97e4-2da6-4db7-b325-25e71619b632" d="M466.92,59.23,438.59,86l-.39.25a77.53,77.53,0,0,0-11.85,9.62,79.36,79.36,0,0,0-12-11.44A78,78,0,0,0,403,77.17l14.69-9a92.63,92.63,0,0,1,8.73,6.4A90.46,90.46,0,0,1,466.92,59.23Z"/><path class="ef30f0c6-e807-4c2b-a55f-f14b189a651d" d="M514.51,68.84l-.19.23a105.74,105.74,0,0,0-8.45,11.35A75.91,75.91,0,0,0,437.59,88l-.39.25a77.53,77.53,0,0,0-11.85,9.62,79.36,79.36,0,0,0-12-11.44A78,78,0,0,0,402,79.17,75.83,75.83,0,0,0,336.31,77a76.88,76.88,0,0,0-16.14,9.62,76.85,76.85,0,0,0-14.49-6.85,75.9,75.9,0,0,0-60.56,4.67,78.42,78.42,0,0,0-14.61-12,76,76,0,0,0-54.59-10.63,105.25,105.25,0,0,0-13-10.93c0-.06,0-.11,0-.15l.37-.13A90.51,90.51,0,0,1,247.46,63.7l0,0h0A90.43,90.43,0,0,1,322,67.79a90.43,90.43,0,0,1,94.65,2.39,92.63,92.63,0,0,1,8.73,6.4,90.47,90.47,0,0,1,89.14-7.74Z"/><path class="ef30f0c6-e807-4c2b-a55f-f14b189a651d" d="M537.1,228.46a90.64,90.64,0,0,1-117.35,1.12,90.47,90.47,0,0,1-93.12,5.79,90.38,90.38,0,0,1-81.69,4.6,91.67,91.67,0,0,1-18.06-10.53A90.5,90.5,0,0,1,160,228.9l.8-.53a105.45,105.45,0,0,0,13.55-10.58,75.8,75.8,0,0,0,52-7.09,78.45,78.45,0,0,0,14.46,11.89,76.6,76.6,0,0,0,15.44,7.59,75.67,75.67,0,0,0,25.48,4.4A75.88,75.88,0,0,0,314,227.4a77.54,77.54,0,0,0,14.49-8.88,76.39,76.39,0,0,0,12.89,6.27,75.9,75.9,0,0,0,66.72-6.72,78.41,78.41,0,0,0,13.65-10.78,78.52,78.52,0,0,0,11.52,11,75.92,75.92,0,0,0,92.31,1.22A101.16,101.16,0,0,0,536,227.69Z"/></svg>