<?xml version="1.0" encoding="utf-8"?>
<!-- Generator: Adobe Illustrator 23.0.0, SVG Export Plug-In . SVG Version: 6.00 Build 0)  -->
<svg version="1.1" id="aa0101a7-f90e-40b6-aff8-9efe4915b117"
	 xmlns="http://www.w3.org/2000/svg" xmlns:xlink="http://www.w3.org/1999/xlink" x="0px" y="0px" viewBox="0 0 612 254.3"
	 style="enable-background:new 0 0 612 254.3;" xml:space="preserve">
<style type="text/css">
	.st0{fill:#7FE7FF;}
	.st1{fill:#393E47;}
	.st2{fill:#FFFFFF;}
	.st3{fill:#292C33;}
</style>
<title>LOGO 5</title>
<polygon class="st0" points="465.4,0 328.2,129.6 400.7,129.6 165.3,254.3 289.8,146.4 220.6,149.9 "/>
<path class="st1" d="M612,122.2c0,52.2-40.9,94.5-91.4,94.5c-3,0-6-0.2-8.9-0.4c-14.5-1.5-28.5-6.5-40.6-14.6c0,0-0.1,0-0.1-0.1
	c-29.5,24.7-72.5,24.9-102.1,0.2c-24.2,16.7-55.7,18.7-81.8,5.1c-21.9,12.7-48.6,14.2-71.8,4c-5.6-2.5-10.9-5.6-15.9-9.3
	c-18.8,7.3-39.7,7.2-58.5-0.4c-0.4,0.3-0.8,0.5-1.2,0.8c-14.4,9.3-31.1,14.2-48.3,14.2c-2.2,0-4.3-0.1-6.4-0.2
	C37.5,212.6,0,171.7,0,121.8c0-50,37.5-90.8,85.1-94.2c2.1-0.2,4.2-0.2,6.4-0.2c18.5,0,36.5,5.8,51.6,16.5c0.3,0.2,0.5,0.4,0.8,0.6
	c24.9-8.6,52.5-4.2,73.6,11.6c9.3-3.6,19-5.4,28.8-5.4c12.6,0,25.3,3,36.7,9c25.9-15,58.1-14.2,83.2,2.1c2.7,1.7,5.2,3.6,7.7,5.6
	c22.9-15.8,52.4-18.5,77.7-7.1c0.2-0.2,0.4-0.4,0.5-0.6c16.7-19.4,41-31.7,68-31.8h0.4C571.1,27.7,612,70,612,122.2z"/>
<path class="st2" d="M49.6,162.7c-2.7-3.4-4-6.4-4-9.1s2.2-6.2,6.7-10.6c2.6-2.5,5.3-3.8,8.2-3.8s6.9,2.6,12.1,7.9
	c1.7,2,3.8,3.8,6.2,5.1c2.2,1.5,4.8,2.3,7.5,2.4c9.6,0,14.4-4,14.4-12c0-2.4-1.3-4.4-4-6.1c-3-1.8-6.4-3-9.8-3.6
	c-4.3-0.8-8.6-2-12.7-3.5c-4.4-1.6-8.6-3.5-12.7-5.8c-3.9-2.2-7.2-5.7-9.8-10.5s-3.9-10.6-4-17.3c0-9.3,3.4-17.3,10.1-24.2
	c6.8-6.9,16-10.3,27.7-10.3c5.7-0.1,11.5,0.8,17,2.5c5.1,1.6,8.7,3.3,10.6,5l3.9,3c3.2,3,4.8,5.6,4.8,7.7s-1.2,5-3.7,8.7
	c-3.5,5.3-7.1,7.9-10.8,7.9c-2.2,0-4.9-1.1-8.1-3.2c-0.6-0.5-1.2-1-1.8-1.6c-0.8-0.7-1.6-1.4-2.4-2.1c-2.5-1.5-5.4-2.2-8.3-2
	c-3-0.1-5.9,0.7-8.4,2.4c-2.2,1.6-3.4,4.1-3.3,6.8c0,2.9,1.5,5.5,4,7c3,1.9,6.3,3.2,9.8,3.6c4.3,0.7,8.6,1.7,12.9,2.9
	c4.4,1.2,8.7,2.8,12.9,4.8c3.9,1.9,7.2,5.2,9.8,9.9c2.6,4.7,3.9,10.4,3.9,17.3c0.1,6.3-1.2,12.5-4,18.1c-2.4,4.9-6,9-10.5,12.1
	c-7.9,5.4-17.2,8.3-26.8,8.4c-4.7,0-9.3-0.6-13.8-1.8c-3.7-0.9-7.3-2.5-10.5-4.5c-5.5-3.4-9.3-6.6-11.4-9.8L49.6,162.7z"/>
<path class="st2" d="M182.5,123.7l-10.1-0.6v21.8c0,2.8,0.4,4.9,1.3,6.1c0.9,1.3,2.5,1.9,5,1.9c1.9,0,3.7,0.1,5.6,0.2
	c1.5,0.2,2.9,0.7,4.1,1.5c2.4,1.4,3.6,4.9,3.6,10.5c0,6.6-1.4,10.7-4.3,12.2c-1.3,0.7-2.7,1.1-4.1,1.3c-1.7,0.2-3.5,0.3-5.2,0.2
	c-10.7,0-18.9-2.5-24.5-7.4c-5.6-4.9-8.4-13.3-8.4-25.1v-23.3c-2.1,0.3-4.2,0.5-6.4,0.5c-2.2,0-4.3-1-5.6-2.7
	c-1.5-1.8-2.2-4.8-2.2-9.1c-0.1-3.1,0.1-6.3,0.8-9.4c0.3-1.6,1.1-3,2.2-4.2c1.8-1.4,4-2.1,6.2-2l5.1,0.6V80.5c0-1.8,0-3.6,0.2-5.4
	c0.2-1.4,0.7-2.6,1.5-3.8c1.3-2.6,5.3-3.9,11.9-3.9c7,0,11.2,1.9,12.5,5.8c0.6,2.6,0.9,5.3,0.8,8v15.5c4.5-0.4,8-0.6,10.3-0.6
	c1.8,0,3.5,0.1,5.3,0.2c1.4,0.2,2.8,0.8,4.1,1.5c2.7,1.4,4,5.4,4,12.2c0,6.6-1.4,10.7-4.2,12.2c-1.3,0.7-2.7,1.1-4.1,1.3
	C186.1,123.7,184.3,123.8,182.5,123.7z"/>
<path class="st2" d="M274.7,106.1c-8.6-8.1-18.4-12.2-29.6-12.2s-21,4.1-29.7,12.3c-8.7,8.2-13,18.6-13,31.3
	c-0.1,8,2.2,15.9,6.6,22.6c4,6.3,9.6,11.6,16.2,15.1c6.1,3.3,12.9,5.1,19.8,5.1c6.9,0,13.6-1.7,19.8-4.8c6.4-3.2,11.8-8.2,16.2-15
	c4.5-6.9,6.8-15,6.7-23.3C287.6,124.7,283.3,114.3,274.7,106.1z M255,148.7c-3.4,2.6-6.8,3.9-10.2,3.9c-3.4,0-6.8-1.3-10.1-3.9
	c-3.3-2.6-5-6.4-5-11.5c0-5.1,1.6-9,4.8-11.6c2.9-2.5,6.6-3.9,10.4-3.9c3.8,0,7.5,1.4,10.4,3.8c3.2,2.5,4.8,6.4,4.8,11.5
	C260.2,142.2,258.5,146.1,255,148.7z"/>
<path class="st2" d="M353.1,96.8c1.9,0.6,3.6,1.7,4.9,3.2c1.3,1.5,1.9,4,1.9,7.3c-0.1,3.9-1.1,7.6-3,11c-2,4-4.8,6-8.5,6
	c-1.9,0-3.7-0.4-5.4-1.3c-2.1-0.9-4.4-1.4-6.7-1.3c-2.9,0-5.7,1.1-7.8,3c-2.3,1.7-3.6,4.4-3.6,7.3v33.1c0,1.8,0,3.6-0.2,5.4
	c-0.2,1.5-0.7,2.9-1.5,4.2c-1.6,2.7-5.6,4.1-12.1,4.1c-5,0-8.5-0.9-10.7-2.7c-1.7-1.5-2.6-3.7-2.8-6.8v-60c0-1.8,0-3.6,0.2-5.4
	c0.2-1.4,0.7-2.8,1.3-4c1.5-2.9,5.5-4.3,12.1-4.3c6.2,0,10.1,1.2,11.6,3.6c1.1,1.5,1.7,3.3,1.7,5.2c0.7-0.9,1.5-1.8,2.3-2.7
	c1-1,3.1-2.5,6.3-4.3c3.2-1.8,6-2.7,8.4-2.6c2.1,0,4.1,0.1,6.1,0.4C349.6,95.7,351.4,96.2,353.1,96.8z"/>
<path class="st2" d="M395.1,106.9c4.9-7.5,10.7-11.2,17.5-11.2c10.5,0,18.4,4.6,23.5,13.7c1.3-1.7,2.6-3.4,4.1-5
	c2.3-2.2,4.9-4.2,7.7-5.7c3.3-2,7-3,10.8-3.1c8.3,0,15.2,3.2,20.8,9.7c5.6,6.4,8.4,17.1,8.4,32.1v27.6c0,1.8,0,3.6-0.2,5.4
	c-0.2,1.5-0.7,2.9-1.5,4.2c-1.3,2.8-5.3,4.3-11.9,4.3c-6.5,0-10.5-1.5-11.9-4.4c-0.6-1.3-1.1-2.7-1.3-4.2c-0.2-1.8-0.3-3.6-0.2-5.4
	v-27.6c0-9.1-3.2-13.7-9.6-13.7c-3.6,0-6.1,1.2-7.4,3.6c-1.3,2.4-1.9,5.8-1.9,10.3v27.6c0,1.8,0,3.7-0.2,5.5
	c-0.3,1.4-0.8,2.8-1.5,4.1c-1.4,2.8-5.5,4.3-12.1,4.3c-6.5,0-10.5-1.5-11.9-4.4c-0.6-1.3-1.1-2.7-1.3-4.2c-0.2-1.8-0.3-3.6-0.2-5.4
	v-27.6c0-9.1-3.2-13.7-9.6-13.7c-6.2,0-9.3,4.6-9.3,13.7v27.9c0,1.8,0,3.6-0.2,5.4c-0.2,1.5-0.7,2.9-1.5,4.2
	c-1.5,2.7-5.6,4.1-12.1,4.1s-10.5-1.4-11.9-4.3c-0.6-1.3-1.1-2.7-1.3-4.1c-0.2-1.8-0.3-3.7-0.2-5.5v-55.5c0-1.8,0-3.6,0.2-5.4
	c0.2-1.4,0.7-2.8,1.5-4c1.5-2.9,5.2-4.3,11-4.3c5.8,0,9.6,0.9,11.3,2.8C394.2,100.5,395.1,103.3,395.1,106.9z"/>
<path class="st2" d="M514,162.8l11.1-25.5l-19.3-35l-10.3-11.7l27.8,3.2l15.5,25.6l23.6-30.8l31.3-18l-32.2,50.9l-8.4,14.2l14.8-7.2
	l-18.7,20.2l-53.7,53.4L514,162.8"/>
<path class="st3" d="M451.8,59.9l-0.2,0.2c-2.7,3.2-5.2,6.5-7.4,10c-19.9-7.5-42.2-5-60,6.7l-0.3,0.2c-3.7,2.5-7.2,5.3-10.4,8.5
	c-3.2-3.7-6.7-7.1-10.5-10.1c-3.1-2.4-6.5-4.5-10-6.4c-18-9.4-39.2-10.1-57.7-1.9c-5.1,2.2-9.8,5.1-14.2,8.5c-4-2.4-8.3-4.5-12.7-6
	c-17.5-6.1-36.8-4.6-53.2,4.1c-3.8-4-8.1-7.6-12.8-10.5c-14.2-9.1-31.4-12.4-48-9.3c-3.5-3.5-7.4-6.7-11.4-9.6c0-0.1,0-0.1,0-0.1
	l0.3-0.1c25-8.7,52.8-4.4,74,11.5l0,0l0,0c21.3-8.3,45.2-7,65.5,3.6c25.9-15,58.1-14.2,83.2,2.1c2.7,1.7,5.2,3.6,7.7,5.6
	C396.6,50.7,426.4,48.1,451.8,59.9L451.8,59.9L451.8,59.9z"/>
<path class="st3" d="M471.7,201.1c-29.5,25.5-73.1,26-103.1,1c-24.2,16.7-55.7,18.7-81.8,5.1c-21.9,12.7-48.6,14.2-71.8,4
	c-5.6-2.5-10.9-5.6-15.9-9.3c-18.9,7.4-40,7.2-58.8-0.5l0.7-0.5c4.2-2.8,8.2-5.9,11.9-9.3c15.5,3.4,31.7,1.2,45.7-6.2
	c3.8,4,8.1,7.5,12.7,10.4c4.3,2.7,8.8,5,13.6,6.7c7.2,2.6,14.8,3.9,22.4,3.9c9.8,0,19.5-2.1,28.4-6.3c4.5-2.1,8.8-4.7,12.7-7.8
	c3.6,2.2,7.4,4,11.3,5.5c19.4,7.2,41.1,5.1,58.6-5.9c4.3-2.7,8.4-5.9,12-9.5c3,3.6,6.4,6.8,10.1,9.7c23.7,18.6,56.9,19.1,81.1,1.1
	c2.9,2.6,6,5,9.2,7.2L471.7,201.1z"/>
</svg>
